<svg width="217" height="111" viewBox="0 0 217 111" fill="none" xmlns="http://www.w3.org/2000/svg">
<g clipPath="url(#clip0_1860_189)">
<path d="M62.9174 45.5375C59.176 45.5375 57.8501 48.7677 57.7582 49.0064C56.8393 46.8436 54.8045 45.4813 52.599 45.5375C51.0631 45.5656 49.6059 46.2397 48.5294 47.4194C47.4529 48.6132 46.8359 50.2002 46.8359 51.8574C46.8359 58.669 52.8353 64.1744 57.7582 64.1744C62.6811 64.1744 68.6805 58.6549 68.6805 51.8574C68.6805 50.2002 68.0635 48.6132 66.987 47.4194C65.9237 46.2397 64.4534 45.5656 62.9306 45.5375H62.9174ZM63.902 52.1102C63.902 53.8798 63.2588 55.5933 62.1035 56.8432C60.9614 58.0932 59.3861 58.7954 57.7582 58.8094C56.1173 58.8094 54.5551 58.0932 53.4129 56.8432C52.2577 55.5792 51.6144 53.8798 51.6144 52.1102V51.9136H53.7936V52.1102C53.7936 53.2478 54.2137 54.3573 54.962 55.1719C55.6972 55.9865 56.7211 56.4359 57.7714 56.4359C58.8347 56.4359 59.8455 55.9724 60.5807 55.1719C61.329 54.3573 61.7491 53.2478 61.7491 52.1102V51.9136H63.9283V52.1102H63.902ZM160.378 45.5515C155.324 45.5515 151.622 49.5261 151.622 54.891C151.622 60.256 155.324 64.2306 160.378 64.2306C165.432 64.2306 169.134 60.256 169.134 54.891C169.134 49.5261 165.445 45.5656 160.378 45.5656V45.5515ZM160.378 60.4386C157.608 60.4386 155.717 58.1353 155.717 54.891C155.717 51.6468 157.608 49.3435 160.378 49.3435C163.148 49.3435 165.038 51.6468 165.038 54.891C165.038 58.1353 163.148 60.4386 160.378 60.4386ZM140.936 45.5515C135.881 45.5515 132.179 49.5261 132.179 54.891C132.179 60.256 135.881 64.2306 140.936 64.2306C145.99 64.2306 149.692 60.256 149.692 54.891C149.692 49.4418 145.99 45.5656 140.936 45.5656V45.5515ZM140.936 60.4386C138.166 60.4386 136.275 58.1353 136.275 54.891C136.275 51.6468 138.166 49.3435 140.936 49.3435C143.706 49.3435 145.596 51.6468 145.596 54.891C145.596 58.1353 143.706 60.4386 140.936 60.4386ZM84.145 45.5515C81.4144 45.5515 79.3928 46.8436 78.2113 49.0486V40.6641H74.5092V54.3995C74.5092 60.2419 77.673 64.2165 83.1342 64.2165C87.6239 64.2165 91.7985 60.7195 91.7985 54.7927C91.7985 49.7648 89.0285 45.5515 84.145 45.5515ZM83.0948 60.2419C80.1017 60.2419 78.395 57.8965 78.395 54.877C78.395 51.8574 80.0623 49.3295 83.0554 49.3295C86.0485 49.3295 87.7157 51.8153 87.7157 54.877C87.7157 57.8965 86.0879 60.2419 83.0948 60.2419ZM102.406 45.5515C97.916 45.5515 93.7414 49.0486 93.7414 54.9753C93.7414 60.0032 96.5113 64.2025 101.395 64.2025C104.125 64.2025 106.147 62.9104 107.329 60.7054V64.0199H111.031V55.3545C111.031 49.512 107.867 45.5375 102.406 45.5375V45.5515ZM102.406 60.4386C99.4651 60.4386 97.8372 58.037 97.8372 54.9753C97.8372 51.9136 99.4651 49.512 102.458 49.512C105.451 49.512 107.158 51.8574 107.158 54.877C107.158 57.9387 105.386 60.4245 102.406 60.4245V60.4386ZM126.548 40.6641V49.0345C125.366 46.8296 123.344 45.5375 120.614 45.5375C115.73 45.5375 112.96 49.7508 112.96 54.7646C112.96 60.8037 116.872 64.1884 121.441 64.1884C126.889 64.1884 130.237 60.2139 130.237 54.3714V40.6641H126.548ZM121.664 60.2419C118.671 60.2419 117.043 57.8965 117.043 54.877C117.043 51.8574 118.842 49.3295 121.703 49.3295C124.565 49.3295 126.364 51.7732 126.364 54.877C126.364 57.8965 124.644 60.2419 121.651 60.2419H121.664Z" fill="#F0EDE8"/>
</g>
<defs>
<clipPath id="clip0_1860_189">
<rect width="122.298" height="23.5524" fill="#F0EDE8" transform="translate(46.8359 40.6719)"/>
</clipPath>
</defs>
</svg>
