<svg width="217" height="111" viewBox="0 0 217 111" fill="none" xmlns="http://www.w3.org/2000/svg">
<g clip-path="url(#clip0_1860_72)">
<path d="M181.779 44.1434C182.475 48.0413 179.915 52.1902 175.135 55.8502C175.096 55.8899 175.135 55.9559 175.188 55.9295C179.009 53.419 183.053 50.6046 185.784 46.8653C186.769 45.5308 187.596 43.9187 187.74 42.2407C188.016 39.0959 185.928 36.3873 183.315 34.9074C181.582 33.9296 179.665 33.3086 177.722 32.8726C174.348 32.093 170.868 31.8551 167.415 31.8948C165.655 31.9212 163.896 32.0137 162.15 32.1855C160.456 32.344 158.775 32.5554 157.108 32.8593C155.453 33.15 153.799 33.4671 152.158 33.8768C151.974 33.9164 151.803 33.9692 151.619 34.0089C151.567 34.0221 151.58 34.1014 151.633 34.1014C167.494 32.5951 180.427 36.6779 181.779 44.1698" fill="#F0EDE8"/>
<path d="M167.599 30.0013C167.599 30.0013 167.534 29.922 167.599 29.9088C168.821 29.6577 170.042 29.4463 171.276 29.2481C173.232 28.931 175.202 28.6667 177.171 28.4817C180.559 28.1514 184.104 27.9532 187.505 28.4421C188.266 28.5478 189.028 28.7064 189.776 28.9178C191.628 29.4463 193.531 30.4505 194.044 32.4589C194.385 33.767 194.175 35.1676 193.768 36.4361C192.98 38.9069 191.444 41.1003 189.816 43.0823C189.711 43.2012 189.619 43.3333 189.514 43.4522C189.487 43.4919 189.422 43.4522 189.435 43.4126C190.105 41.6288 190.407 39.594 190.052 37.7045C189.54 34.9165 187.334 32.8685 184.839 31.7718C181.819 30.4373 178.511 30.107 175.241 29.9748C172.694 29.8691 170.147 29.922 167.599 30.0409" fill="#F0EDE8"/>
<path d="M130.262 55.9901L133.715 60.575H121.241L117.289 65.8206H111.564L129.093 42.5391L146.622 65.8206H140.897L129.093 50.1366L124.681 55.9901H130.235H130.262ZM153.699 51.0615H158.255V65.8206H153.699V51.0615ZM142.328 43.8604H169.626V48.4453H142.328V43.8604ZM110.094 59.1876C110.094 62.8477 107.139 65.8206 103.502 65.8206H84.4375V59.7426H88.9937V61.2357H103.489C104.619 61.2357 105.524 60.324 105.524 59.1876C105.524 58.0513 104.619 57.1396 103.489 57.1396H84.4375V52.5546H99.7472C100.876 52.5546 101.782 51.6429 101.782 50.5066C101.782 49.3703 100.876 48.4586 99.7472 48.4586H88.9937V49.9516H84.4375V43.8736H99.7472C103.384 43.8736 106.339 46.8466 106.339 50.5066C106.339 51.3919 106.168 52.2375 105.853 53.0039C108.321 53.9684 110.081 56.3732 110.081 59.2009" fill="#F0EDE8"/>
</g>
<defs>
<clipPath id="clip0_1860_72">
<rect width="109.755" height="37.6839" fill="white" transform="translate(84.4375 28.1406)"/>
</clipPath>
</defs>
</svg>
