<svg width="145" height="74" viewBox="0 0 145 74" fill="none" xmlns="http://www.w3.org/2000/svg">
<g clipPath="url(#clip0_1860_784)">
<path d="M100.839 29.2529C101.301 31.8336 99.6031 34.5806 96.4342 37.0038C96.4081 37.0301 96.4342 37.0738 96.4691 37.0563C99.0024 35.3942 101.684 33.5308 103.494 31.0551C104.147 30.1715 104.696 29.1042 104.792 27.9932C104.974 25.9111 103.59 24.1178 101.858 23.138C100.709 22.4906 99.4377 22.0794 98.1492 21.7907C95.9119 21.2746 93.6049 21.1171 91.3153 21.1434C90.1488 21.1609 88.9822 21.2221 87.8244 21.3358C86.7014 21.4408 85.587 21.5808 84.4814 21.782C83.3845 21.9745 82.2876 22.1844 81.1994 22.4556C81.0775 22.4818 80.9644 22.5168 80.8425 22.5431C80.8077 22.5518 80.8164 22.6043 80.8512 22.6043C91.3676 21.607 99.9426 24.3102 100.839 29.2704" fill="#F0EDE8"/>
<path d="M91.4412 19.883C91.4412 19.883 91.3977 19.8305 91.4412 19.8217C92.2508 19.6555 93.0605 19.5155 93.8788 19.3843C95.1759 19.1744 96.4818 18.9994 97.7876 18.8769C100.034 18.6582 102.384 18.527 104.639 18.8507C105.144 18.9207 105.649 19.0256 106.145 19.1656C107.372 19.5155 108.635 20.1804 108.974 21.5101C109.201 22.3762 109.061 23.3035 108.792 24.1433C108.269 25.7792 107.251 27.2314 106.171 28.5437C106.101 28.6224 106.041 28.7099 105.971 28.7886C105.953 28.8148 105.91 28.7886 105.919 28.7624C106.363 27.5814 106.563 26.2341 106.328 24.9831C105.988 23.1373 104.526 21.7813 102.872 21.0552C100.869 20.1717 98.6756 19.9529 96.5079 19.8655C94.819 19.7955 93.1301 19.8305 91.4412 19.9092" fill="#F0EDE8"/>
<path d="M66.6795 37.0853L68.969 40.1209H60.6987L58.0783 43.594H54.2827L65.9047 28.1797L77.5267 43.594H73.731L65.9047 33.2099L62.9796 37.0853H66.6621H66.6795ZM82.219 33.8223H85.2398V43.594H82.219V33.8223ZM74.6799 29.0545H92.7789V32.0901H74.6799V29.0545ZM53.3076 39.2024C53.3076 41.6256 51.3489 43.594 48.9374 43.594H36.2969V39.5698H39.3177V40.5584H48.9287C49.6774 40.5584 50.2781 39.9547 50.2781 39.2024C50.2781 38.45 49.6774 37.8464 48.9287 37.8464H36.2969V34.8108H46.4476C47.1963 34.8108 47.797 34.2072 47.797 33.4548C47.797 32.7025 47.1963 32.0989 46.4476 32.0989H39.3177V33.0874H36.2969V29.0633H46.4476C48.8591 29.0633 50.8178 31.0316 50.8178 33.4548C50.8178 34.041 50.7047 34.6008 50.4957 35.1082C52.1324 35.7469 53.2989 37.339 53.2989 39.2111" fill="#F0EDE8"/>
</g>
<defs>
<clipPath id="clip0_1860_784">
<rect width="72.7702" height="24.9498" fill="#F0EDE8" transform="translate(36.2969 18.6484)"/>
</clipPath>
</defs>
</svg>
