<svg width="217" height="111" viewBox="0 0 217 111" fill="none" xmlns="http://www.w3.org/2000/svg">
<g clipPath="url(#clip0_1860_183)">
<path fill-rule="evenodd" clip-rule="evenodd" d="M97.7093 63.9279H101.173L105.492 50.4621L110.681 63.9279H114.663L120.72 45.7548H117.439L113.288 58.375L108.436 45.7548H102.379L103.248 47.61L97.7093 63.9279ZM152.539 45.4141C156.858 45.4141 161.709 46.2596 158.765 54.8414C156.339 62.2494 151.332 64.2686 146.313 64.2686C140.955 64.2686 137.492 62.2494 139.918 54.8414C142.343 47.774 146.831 45.4141 152.539 45.4141ZM144.756 54.8414C143.199 59.5487 143.887 62.0727 147 62.0727C151.151 62.0727 152.539 59.0439 154.095 54.8414C156.339 48.2788 154.264 47.61 151.851 47.61C148.738 47.61 146.494 49.6292 144.756 54.8414ZM137.492 49.1244C132.135 46.4363 128.672 47.774 128.503 50.134C128.153 52.9988 137.323 53.1629 135.936 58.2109C133.86 66.4519 120.889 64.1046 119.501 63.4231L120.539 60.0535C125.727 63.0823 130.747 62.2368 130.916 59.0439C131.084 56.015 122.095 55.6743 123.483 50.8029C125.559 43.7356 136.623 45.5781 138.53 45.9189L137.492 49.1118V49.1244ZM70.0416 45.7548C74.5426 45.7548 80.5872 46.2596 78.5118 53.6677C75.7489 63.4231 69.6914 63.9279 62.2588 63.9279H57.7578L63.1149 47.5974L62.2588 45.7548H70.0416ZM73.8422 53.8317C75.7489 48.1148 72.8045 47.9381 69.86 47.9381H67.7846C67.6722 47.9381 67.5554 47.9928 67.4344 48.1022L63.4522 60.8864C63.102 61.3912 63.2836 61.732 63.971 61.732C70.5475 61.896 71.9224 60.0535 73.8292 53.8191L73.8422 53.8317ZM99.0972 47.9381H89.9265L88.2013 53.3269H94.4275L93.7401 55.5102H87.3452L85.7887 60.899C85.6201 61.2398 85.6201 61.7446 86.3075 61.7446H94.9594L94.2719 63.9279H80.0943L85.4385 47.5974L84.5694 45.7422H99.7847L99.0972 47.9255V47.9381Z" fill="#F0EDE8"/>
</g>
<defs>
<clipPath id="clip0_1860_183">
<rect width="101.915" height="18.842" fill="#F0EDE8" transform="translate(57.7578 45.4062)"/>
</clipPath>
</defs>
</svg>
