<svg width="217" height="111" viewBox="0 0 217 111" fill="none" xmlns="http://www.w3.org/2000/svg">
<g clipPath="url(#clip0_1860_36)">
<path fill-rule="evenodd" clip-rule="evenodd" d="M58.8905 64.2795C68.9959 64.2795 77.195 60.0676 77.195 54.8585C77.195 49.6494 68.9959 45.4375 58.8905 45.4375C48.7851 45.4375 40.5859 49.6494 40.5859 54.8585C40.5859 60.0676 48.7851 64.2795 58.8905 64.2795ZM62.3373 59.6608C62.037 60.3694 61.5017 61.8914 60.3005 62.495C59.935 62.6787 59.4911 62.7705 59.0733 62.7705C58.9819 62.7705 58.9166 62.7705 58.8905 62.7705C55.509 62.7705 52.3755 62.2982 49.7382 61.4978C49.7121 61.4978 49.6599 61.4715 49.6468 61.4584C49.3988 61.3797 49.2813 61.2616 49.2813 61.1304C49.2813 61.0123 49.3465 60.9204 49.4379 60.8286C49.4771 60.7892 49.5293 60.7367 49.6077 60.6843C50.2082 60.1725 52.0491 58.8473 55.4959 57.5221C56.7101 57.0628 58.2246 56.4724 59.8044 56.1444C60.7314 55.9475 64.1782 55.4227 62.3634 59.6739L62.3373 59.6608ZM71.581 50.1611C71.6462 50.043 71.7376 49.9512 71.8812 49.9381C71.9726 49.9381 72.0901 49.9512 72.2599 50.0693C74.4011 51.3945 75.6805 53.0609 75.6805 54.8585C75.6805 58.1125 71.5287 60.8942 65.5882 62.1145C65.2096 62.1932 64.9615 62.1932 64.8702 62.0882C64.8179 62.0226 64.7918 61.9308 64.8702 61.7996C64.9093 61.734 64.9485 61.6684 65.0268 61.5765C68.2647 57.7451 70.7323 52.0899 71.4243 50.4498C71.4765 50.3317 71.5287 50.2267 71.5679 50.148L71.581 50.1611ZM55.4959 50.043C55.7962 49.3345 56.3315 47.8124 57.5327 47.2089C57.8982 47.0252 58.3552 46.9333 58.7599 46.9202C58.8513 46.9202 58.9166 46.9202 58.9427 46.9202C62.3242 46.9202 65.4577 47.3925 68.095 48.1929C68.1211 48.1929 68.1733 48.2192 68.1994 48.2323C68.4475 48.311 68.565 48.4291 68.565 48.5603C68.565 48.6784 68.4997 48.7703 68.4214 48.8621C68.3822 48.9015 68.33 48.954 68.2517 49.0065C67.638 49.5182 65.8102 50.8434 62.3634 52.1686C61.1492 52.6279 59.6347 53.2183 58.0549 53.5464C57.1279 53.7432 53.6811 54.268 55.4959 50.0168V50.043ZM52.1797 47.6025C52.5583 47.5238 52.8064 47.5238 52.8978 47.6287C52.95 47.6943 52.9631 47.7862 52.8978 47.9174C52.8586 47.983 52.8194 48.0486 52.7411 48.1405C49.5032 51.9718 47.0356 57.627 46.3436 59.2672C46.2914 59.3853 46.2392 59.4902 46.2 59.569C46.1348 59.6871 46.0434 59.7789 45.8997 59.792C45.8084 59.792 45.6908 59.7789 45.5211 59.6739C43.3669 58.3487 42.1004 56.6823 42.1004 54.8847C42.1004 51.6307 46.2523 48.849 52.2058 47.6287L52.1797 47.6025Z" fill="#F0EDE8"/>
<path fill-rule="evenodd" clip-rule="evenodd" d="M93.4539 48.125V53.255H87.67V48.125H84.4844V61.5863H87.67V56.1677H93.4539V61.5863H96.6395V48.125H93.4539Z" fill="#F0EDE8"/>
<path fill-rule="evenodd" clip-rule="evenodd" d="M108.317 48.125L104.988 53.4518L101.659 48.125H97.8984L103.395 56.9287V61.5863H106.581V56.9287L112.077 48.125H108.317Z" fill="#F0EDE8"/>
<path fill-rule="evenodd" clip-rule="evenodd" d="M122.344 48.125V57.9914C122.344 58.3588 122.07 58.6737 121.666 58.6737H116.561V48.125H113.375V61.5863H122.788C123.624 61.5863 124.303 61.3371 124.786 60.8516C125.269 60.353 125.517 59.6839 125.517 58.8442V48.125H122.331H122.344Z" fill="#F0EDE8"/>
<path fill-rule="evenodd" clip-rule="evenodd" d="M137.89 48.125H128.477V61.5863H131.662V51.0377H136.78C137.185 51.0377 137.459 51.3657 137.459 51.7068V61.5732H140.645V50.8802C140.645 50.0406 140.397 49.3583 139.914 48.8729C139.418 48.3743 138.752 48.125 137.916 48.125H137.89Z" fill="#F0EDE8"/>
<path fill-rule="evenodd" clip-rule="evenodd" d="M152.992 48.125H143.578V61.5863H152.992C153.827 61.5863 154.506 61.3371 154.989 60.8516C155.485 60.353 155.733 59.6839 155.733 58.8442V50.8802C155.733 50.0406 155.485 49.3583 154.989 48.8729C154.493 48.3743 153.827 48.125 152.992 48.125ZM152.548 51.7331V57.9652C152.548 58.3325 152.286 58.6605 151.869 58.6605H146.764V51.0377H151.856C152.273 51.0377 152.561 51.3263 152.561 51.7331H152.548Z" fill="#F0EDE8"/>
<path fill-rule="evenodd" clip-rule="evenodd" d="M161.296 48.125C160.461 48.125 159.782 48.3743 159.299 48.8729C158.816 49.3714 158.555 50.0406 158.555 50.8802V61.5863H161.74V57.4272H167.524V61.5863H170.71V48.125H161.296ZM167.524 51.0377V54.5014H161.74V51.7199C161.74 51.3919 161.988 51.0377 162.419 51.0377H167.524Z" fill="#F0EDE8"/>
<path fill-rule="evenodd" clip-rule="evenodd" d="M176.834 48.125H173.805V61.5863H176.99V48.125H176.834Z" fill="#F0EDE8"/>
</g>
<defs>
<clipPath id="clip0_1860_36">
<rect width="136.409" height="18.842" fill="white" transform="translate(40.5859 45.4375)"/>
</clipPath>
</defs>
</svg>
