<svg width="217" height="111" viewBox="0 0 217 111" fill="none" xmlns="http://www.w3.org/2000/svg">
<g clip-path="url(#clip0_1860_165)">
<path d="M117.408 42.5781H107.307V43.5219C107.714 43.5488 108.108 43.6163 108.515 43.6972C108.831 43.7511 109.12 43.8859 109.369 44.0881C109.973 44.6139 109.96 45.5981 109.96 47.3913V59.404C109.96 61.8443 110.171 65.3092 106.795 65.2687C105.35 65.2553 103.866 64.1902 103.406 62.2622H102.25C102.736 65.4979 104.417 67.6955 108.489 67.6955H108.502C111.957 67.6955 115.044 66.0642 115.044 60.523V47.4048C115.044 45.6116 115.044 44.6679 115.635 44.1421C116.029 43.805 116.344 43.6432 117.395 43.5219V42.5781H117.408Z" fill="#F0EDE8"/>
<path d="M128.997 42.5781H118.883V43.5219C119.934 43.6297 120.262 43.7915 120.643 44.1286C121.129 44.5465 121.208 45.2476 121.234 46.4206V63.1925C121.221 64.3789 121.129 65.0665 120.643 65.4845C120.262 65.8215 119.934 65.9833 118.883 66.0912V67.0484H134.146L135.761 62.2487H134.579C133.41 64.8778 131.598 65.1878 129.929 65.1878C128.577 65.1878 127.67 65.107 127.04 64.689C126.527 64.3519 126.33 63.4621 126.317 61.9521V47.4048C126.317 45.6116 126.317 44.6274 126.908 44.1016C127.289 43.7646 127.933 43.6432 128.984 43.5354V42.5781H128.997Z" fill="#F0EDE8"/>
<path d="M145.835 42.5781H135.734V43.5219C136.785 43.6297 137.114 43.7915 137.494 44.1286C137.98 44.5465 138.059 45.2476 138.086 46.4206V63.1925C138.072 64.3789 137.98 65.0665 137.494 65.4845C137.114 65.8215 136.785 65.9833 135.734 66.0912V67.0484H150.997L152.613 62.2487H151.431C150.262 64.8778 148.449 65.1878 146.781 65.1878C145.428 65.1878 144.522 65.107 143.891 64.689C143.379 64.3519 143.182 63.4621 143.169 61.9521V47.4048C143.169 45.6116 143.169 44.6274 143.76 44.1016C144.141 43.7646 144.785 43.6432 145.835 43.5354V42.5781Z" fill="#F0EDE8"/>
<path d="M78.0793 74.4584C78.5522 74.2292 78.9988 73.973 79.4191 73.6629C79.511 73.5955 79.603 73.5416 79.6949 73.4742C80.2335 73.0562 80.7326 72.5978 81.1792 72.099C81.7834 71.4384 82.3351 70.7238 82.808 69.9688C83.1889 69.3756 83.5435 68.7554 83.8588 68.1082C85.0803 65.5871 85.9079 62.8906 86.3019 60.1133C86.5646 58.3606 86.696 56.5944 86.6828 54.8282C86.6828 53.0621 86.5515 51.2824 86.3019 49.5297C85.9079 46.7524 85.0803 44.0559 83.8588 41.5347C83.7143 41.2516 83.5567 40.955 83.399 40.6719C82.7423 41.9122 82.1906 43.22 81.7571 44.5548C82.5453 47.022 83.0313 49.5836 83.202 52.1722C83.2545 53.0486 83.2808 53.9249 83.2808 54.8013C83.2808 55.6776 83.2545 56.5674 83.202 57.4303C83.0181 60.5986 82.322 63.713 81.1661 66.6522C80.7063 67.7847 80.1678 68.8902 79.5373 69.9418C79.3928 70.1845 79.2483 70.4407 79.0907 70.6834C78.7755 71.1687 78.4208 71.6541 78.053 72.1125C77.6327 72.6518 77.1861 73.1641 76.7132 73.636C76.201 74.1483 75.6624 74.6202 75.0845 75.0381C75.0319 75.0786 74.9925 75.1055 74.9531 75.146V75.1999C76.0302 75.1595 77.081 74.9033 78.0662 74.4314L78.0793 74.4584Z" fill="#F0EDE8"/>
<path d="M84.2899 74.4525C84.7628 74.2233 85.2094 73.9672 85.6428 73.6571C85.7348 73.5897 85.8267 73.5357 85.9187 73.4683C87.7182 72.0796 89.0711 70.1382 90.0956 68.1024C91.3172 65.5812 92.1447 62.8848 92.5388 60.1074C92.8015 58.3547 92.9328 56.5885 92.9197 54.8224C92.9197 53.0562 92.7883 51.2765 92.5388 49.5238C92.1447 46.7465 91.3172 44.0501 90.0956 41.5289C89.163 39.6414 87.9283 37.8482 86.3258 36.5C85.8136 37.0663 85.3407 37.6595 84.8941 38.2931C85.0517 38.5089 85.1962 38.7246 85.3407 38.9403C87.9021 42.8501 89.1368 47.5285 89.4389 52.1798C89.5046 53.0562 89.5308 53.9325 89.5308 54.8089C89.5308 55.6852 89.5046 56.5751 89.4389 57.4379C89.1236 62.1028 87.9021 66.7811 85.3407 70.6775C85.0255 71.1628 84.6708 71.6482 84.303 72.1066C83.8827 72.6459 83.4361 73.1582 82.9632 73.6301C82.451 74.1424 81.9124 74.6143 81.3345 75.0322L81.2031 75.1401V75.194C82.2802 75.1536 83.331 74.8974 84.303 74.4256L84.2899 74.4525Z" fill="#F0EDE8"/>
<path d="M92.114 73.4721C93.9135 72.0834 95.2664 70.142 96.2909 68.1062C97.5125 65.585 98.34 62.8886 98.7341 60.1112C98.9968 58.3585 99.1281 56.5924 99.115 54.8262C99.115 53.06 98.9837 51.2803 98.7341 49.5277C98.34 46.7503 97.5125 44.0539 96.2909 41.5327C95.2795 39.4834 93.9266 37.5554 92.114 36.1668C90.7742 35.1421 89.0797 34.468 87.3984 34.4141V34.468C89.0403 35.6409 90.4327 37.2588 91.536 38.9441C94.0974 42.8539 95.3321 47.5323 95.6473 52.1837C95.6999 53.06 95.7393 53.9363 95.7393 54.8127C95.7393 55.689 95.713 56.5789 95.6473 57.4417C95.3321 62.1066 94.1105 66.7849 91.536 70.6813C90.4195 72.3666 89.0403 73.971 87.3984 75.1574V75.2113C89.0929 75.1709 90.7742 74.4833 92.114 73.4586V73.4721Z" fill="#F0EDE8"/>
<path d="M84.2841 35.1769C83.8113 35.4061 83.3647 35.6622 82.9443 35.9723C82.8524 36.0397 82.7604 36.0937 82.6685 36.1611C82.13 36.579 81.6308 37.0374 81.1842 37.5363C80.58 38.1969 80.0415 38.9115 79.5555 39.6665C79.1745 40.2732 78.8199 40.8934 78.5046 41.527C77.2831 44.0482 76.4556 46.7446 76.0615 49.522C75.7988 51.2747 75.6674 53.0409 75.6806 54.8205C75.6806 56.5867 75.8119 58.3663 76.0615 60.1055C76.4556 62.8829 77.2831 65.5928 78.5046 68.1005C78.6491 68.3836 78.8068 68.6803 78.9644 68.9634C79.6211 67.723 80.1728 66.4152 80.6063 65.067C79.805 62.5998 79.3322 60.0381 79.1614 57.4495C79.1089 56.5732 79.0826 55.6969 79.0826 54.8205C79.0826 53.9442 79.1089 53.0543 79.1614 52.1915C79.3453 49.0231 80.0415 45.9087 81.1974 42.9696C81.6571 41.8236 82.1956 40.7316 82.8261 39.68C82.9706 39.4373 83.1151 39.1811 83.2727 38.9384C83.588 38.4531 83.9426 37.9677 84.3104 37.5093C84.7307 36.97 85.1773 36.4577 85.6502 35.9858C86.1624 35.4735 86.701 35.0016 87.2789 34.5837C87.3315 34.5432 87.3709 34.5163 87.4103 34.4758V34.4219C86.3332 34.4623 85.2824 34.7185 84.2973 35.1904L84.2841 35.1769Z" fill="#F0EDE8"/>
<path d="M78.0682 35.179C77.5953 35.4082 77.1487 35.6644 76.7153 35.9745C76.6233 36.0419 76.5314 36.0958 76.4394 36.1632C74.6399 37.5519 73.287 39.4933 72.2625 41.5292C71.0409 44.0503 70.2134 46.7468 69.8193 49.5241C69.5566 51.2768 69.4253 53.043 69.4384 54.8227C69.4384 56.5888 69.5697 58.3685 69.8193 60.1077C70.2134 62.885 71.0409 65.5815 72.2625 68.1027C73.1951 69.9902 74.4298 71.7833 76.0323 73.1315C76.5445 72.5653 77.0174 71.9721 77.464 71.3519C77.3064 71.1362 77.1619 70.9205 77.0174 70.7047C74.456 66.7949 73.2213 62.1165 72.9192 57.4652C72.8667 56.5888 72.8273 55.7125 72.8273 54.8361C72.8273 53.9598 72.8535 53.07 72.9192 52.2071C73.2345 47.5422 74.456 42.8639 77.0174 38.9675C77.3326 38.4822 77.6873 37.9968 78.0551 37.5384C78.4754 36.9991 78.922 36.4868 79.3949 36.0149C79.9071 35.5026 80.4457 35.0307 81.0236 34.5993C81.0762 34.5588 81.1156 34.5319 81.155 34.4914V34.4375C80.0779 34.4779 79.0271 34.7341 78.0551 35.206L78.0682 35.179Z" fill="#F0EDE8"/>
<path d="M70.2432 36.1668C68.4437 37.5554 67.0908 39.4969 66.0794 41.5327C64.8578 44.0404 64.0303 46.7368 63.6231 49.5277C63.3604 51.2804 63.2422 53.0465 63.2422 54.8262C63.2422 56.5924 63.3735 58.372 63.6231 60.1112C64.0172 62.8886 64.8447 65.5985 66.0662 68.1062C67.0777 70.1555 68.4306 72.0835 70.2432 73.4721C71.583 74.5103 73.2775 75.1844 74.9588 75.2248V75.1709C73.3037 73.9845 71.9114 72.3666 70.8212 70.6813C68.2598 66.7715 67.0251 62.0931 66.7099 57.4417C66.6573 56.5654 66.6179 55.689 66.6179 54.8127C66.6179 53.9364 66.6442 53.0465 66.7099 52.1837C67.012 47.5188 68.2467 42.8405 70.8212 38.9441C71.9245 37.2588 73.3169 35.6409 74.9719 34.468V34.4141C73.2775 34.4545 71.5962 35.1421 70.2432 36.1668Z" fill="#F0EDE8"/>
<path d="M82.2699 73.1271C82.7822 72.5609 83.255 71.9676 83.7016 71.334C83.544 71.1183 83.3995 70.9026 83.255 70.6868C83.0974 70.4442 82.9661 70.2015 82.8084 69.9453C82.3224 70.7003 81.7839 71.4149 81.1797 72.0755C81.5212 72.453 81.889 72.7901 82.2699 73.1271Z" fill="#F0EDE8"/>
<path d="M85.6367 71.75C85.2163 72.0601 84.7566 72.3163 84.2969 72.5455C85.2689 73.0173 86.3328 73.2735 87.3968 73.3139V73.26C86.7663 72.8016 86.1752 72.3028 85.6367 71.75Z" fill="#F0EDE8"/>
<path d="M80.5948 73.2735C80.7655 73.26 80.9363 73.2196 81.0939 73.1926C80.9231 73.0713 80.7524 72.9364 80.5948 72.8151C80.1876 72.478 79.7935 72.1275 79.4257 71.75C79.0054 72.0601 78.5457 72.3163 78.0859 72.5455C78.7296 72.8555 79.4126 73.0713 80.1088 73.1926C80.2795 73.2196 80.4371 73.2465 80.6079 73.2735M81.199 73.3139V73.26C81.199 73.26 81.1464 73.2196 81.1202 73.1926C80.9625 73.2196 80.7918 73.2465 80.621 73.2735C80.8181 73.3005 81.0151 73.3139 81.2121 73.3139H81.199Z" fill="#F0EDE8"/>
<path d="M80.0958 36.5C79.5835 37.0663 79.1107 37.6595 78.6641 38.2931C78.8217 38.5089 78.9662 38.7246 79.1107 38.9403C79.2683 39.183 79.3996 39.4256 79.5573 39.6818C80.0433 38.9268 80.5818 38.2122 81.186 37.5516C80.8445 37.1741 80.4767 36.8371 80.0958 36.5Z" fill="#F0EDE8"/>
<path d="M76.7342 35.978C77.1545 35.6679 77.6142 35.4117 78.074 35.1826C77.102 34.7107 76.038 34.4545 74.9609 34.4141V34.468C75.5914 34.9264 76.1825 35.4252 76.7211 35.978" fill="#F0EDE8"/>
<path d="M84.2849 35.1826C83.6413 34.8725 82.9583 34.6567 82.2621 34.5354C82.0913 34.5084 81.9337 34.4815 81.763 34.4545C81.5659 34.4275 81.3689 34.4141 81.1719 34.4141V34.468C81.1719 34.468 81.2244 34.5084 81.2507 34.5354C81.4214 34.6567 81.5922 34.7916 81.7498 34.9129C82.157 35.25 82.5511 35.6005 82.9189 35.978C83.3392 35.6679 83.7989 35.4117 84.2586 35.1826" fill="#F0EDE8"/>
</g>
<defs>
<clipPath id="clip0_1860_165">
<rect width="89.3717" height="40.8242" fill="white" transform="translate(63.2422 34.4141)"/>
</clipPath>
</defs>
</svg>
