<svg width="217" height="111" viewBox="0 0 217 111" fill="none" xmlns="http://www.w3.org/2000/svg">
<g clip-path="url(#clip0_1860_63)">
<path d="M79.826 79.9397C79.5604 79.8084 79.2549 79.8346 78.9627 79.769C77.7407 79.4801 76.5984 79.0337 75.7749 78.0489C74.8983 76.9984 74.7389 75.8035 75.1905 74.5693C75.6421 73.3744 76.6648 72.731 77.8868 72.5472C79.7861 72.2583 81.1941 73.0855 81.898 74.7925C82.1371 75.3702 82.3629 75.9611 82.841 76.4207C83.4919 77.0378 84.2755 76.959 84.7404 76.2106C85.0592 75.6854 85.2185 75.0945 85.2053 74.4774C85.2053 64.5112 85.2053 54.5451 85.2053 44.579C85.2053 43.9356 84.7005 43.4104 84.0497 43.3973C84.0497 43.3973 84.0364 43.3973 84.0231 43.3973C83.4653 43.3973 82.9074 43.3973 82.3363 43.3973C81.4597 43.3973 80.7026 42.767 80.5299 41.9267C80.3706 41.0469 80.8886 40.1803 81.7652 39.9045C82.084 39.8126 82.4027 39.7732 82.7215 39.7864H98.4741C99.3507 39.7864 99.7758 39.4975 100.081 38.6703C100.387 37.843 101.25 37.3178 102.246 37.3047H127.057C127.447 37.3047 127.642 37.4973 127.642 37.8824V40.5873C127.642 41.0732 127.642 41.0732 127.137 41.0732H120.655C119.566 41.0732 118.968 41.664 118.968 42.7407V65.391C118.968 66.3758 118.61 67.1242 117.733 67.6757C115.263 69.2251 112.832 70.8139 110.388 72.3765C110.229 72.4815 110.056 72.5734 109.87 72.6522C108.874 73.033 107.944 72.4421 107.865 71.3917C107.865 71.2472 107.865 71.1028 107.865 70.9715V43.266C107.865 43.0296 107.851 42.8064 107.811 42.57C107.679 41.5721 107.134 41.0863 106.111 41.0863C104.889 41.0863 103.667 41.0863 102.432 41.0863C101.595 41.0863 101.237 41.3489 100.945 42.1236C100.666 42.8983 99.9086 43.4104 99.0851 43.4104C98.7132 43.4104 98.328 43.4104 97.9561 43.4104C97.3186 43.3841 96.774 43.8831 96.7607 44.5265C96.7607 44.5396 96.7607 44.5528 96.7607 44.5659V67.3868C96.7873 68.6736 96.4021 69.921 95.6716 70.9846C95.1137 71.7725 94.3566 72.3239 93.5597 72.8492C90.983 74.5693 88.3797 76.2631 85.803 77.9963C84.5146 78.8761 83.1465 79.5589 81.5925 79.8215C81.3402 79.8609 81.0745 79.7821 80.8354 79.9265H79.7994L79.826 79.9397Z" fill="#F0EDE8"/>
<path d="M129.211 51.183C129.211 46.7449 129.211 42.2936 129.211 37.8555C129.211 37.4879 129.304 37.3828 129.676 37.3828C133.103 37.3959 136.529 37.3959 139.956 37.3828C140.315 37.3828 140.381 37.4879 140.381 37.8161C140.381 44.8541 140.381 51.9052 140.381 58.9432C140.381 59.9149 140.036 60.6896 139.146 61.2411C136.662 62.8036 134.205 64.4055 131.735 65.9943C131.482 66.165 131.203 66.2701 130.911 66.3095C129.955 66.3883 129.397 65.8893 129.251 64.8257C129.238 64.6681 129.224 64.5106 129.238 64.3661V51.183H129.211Z" fill="#F0EDE8"/>
<path d="M134.776 31.2741H139C139.943 31.2479 140.74 31.9701 140.793 32.9023C140.86 33.9396 140.249 34.7143 139.226 34.8456C139.04 34.8719 138.841 34.885 138.641 34.885H130.832C130.154 34.885 129.543 34.7537 129.131 34.1497C128.72 33.5457 128.64 32.9023 128.972 32.2589C129.251 31.6418 129.875 31.261 130.553 31.2873H134.763L134.776 31.2741Z" fill="#F0EDE8"/>
</g>
<defs>
<clipPath id="clip0_1860_63">
<rect width="65.8528" height="48.675" fill="white" transform="translate(74.9375 31.2969)"/>
</clipPath>
</defs>
</svg>
