<svg width="217" height="111" viewBox="0 0 217 111" fill="none" xmlns="http://www.w3.org/2000/svg">
<g clipPath="url(#clip0_1860_82)">
<path d="M141.938 48.6065L146.232 45.4375H131.867V64.4907H146.232V61.3087H135.966V56.4312H144.723V53.2622H135.966V48.6065H141.938Z" fill="#F0EDE8"/>
<path d="M121.017 52.858H116.021V48.6065H123.984L128.278 45.4375H111.922V64.4907H120.484C125.285 64.4907 128.044 62.3128 128.044 58.5048C128.044 54.6968 125.545 52.871 121.017 52.871M120.301 61.3217H116.021V56.04H120.301C122.904 56.04 124.114 56.9268 124.114 58.6874C124.114 60.4479 122.826 61.3217 120.301 61.3217Z" fill="#F0EDE8"/>
<path d="M157.875 45.4375H150.055V64.4907H154.153V59.0917H157.875C162.871 59.0917 165.968 56.4573 165.968 52.2581C165.968 48.0588 162.871 45.4375 157.875 45.4375ZM157.784 55.9226H154.153V48.6065H157.784C160.412 48.6065 161.856 49.9106 161.856 52.2581C161.856 54.6055 160.412 55.9096 157.784 55.9096" fill="#F0EDE8"/>
<path d="M104.876 60.3466C103.783 60.9335 102.573 61.2465 101.337 61.2334C97.6413 61.2334 94.9608 58.5861 94.9608 54.9476C94.9608 51.3091 97.6413 48.6617 101.337 48.6617C102.677 48.6487 103.978 49.0529 105.071 49.8354L108.012 47.6575L107.816 47.488C106.099 45.9752 103.809 45.1797 101.18 45.1797C98.3309 45.1797 95.7545 46.1447 93.9069 47.8923C92.0592 49.6398 91.0312 52.1176 91.0312 54.8563C91.0312 57.5949 92.0462 60.1119 93.8938 61.9246C95.7415 63.7373 98.3309 64.7415 101.154 64.7415C103.978 64.7415 106.697 63.7113 108.441 61.8333L105.787 59.8771L104.876 60.3727V60.3466Z" fill="#F0EDE8"/>
<path d="M81.2746 54.8649C81.2746 53.9259 81.1965 52.987 81.0273 52.048L77.6573 54.5389V54.8519C77.6573 61.529 72.2704 66.9541 65.6083 66.9541C58.9463 66.9541 53.5334 61.5551 53.5334 54.878C53.5334 48.2008 58.9203 42.7757 65.5823 42.7757C68.0155 42.7757 70.3967 43.506 72.4135 44.8884L75.4583 42.6322C68.7182 37.1941 58.8552 38.2504 53.4163 45.0057C47.9773 51.7481 49.0313 61.6333 55.7714 67.0845C62.4985 72.5358 72.3745 71.4794 77.8004 64.7241C80.0515 61.9333 81.2746 58.4512 81.2746 54.8649Z" fill="#F0EDE8"/>
<path d="M78.0081 45.2656C78.7498 46.2307 79.3874 47.274 79.8818 48.3825L65.6079 58.9328L59.6484 55.19V50.6777L65.6079 54.4206L78.0081 45.2656Z" fill="#F0EDE8"/>
</g>
<defs>
<clipPath id="clip0_1860_82">
<rect width="116.026" height="31.4033" fill="#F0EDE8" transform="translate(49.9375 39.1562)"/>
</clipPath>
</defs>
</svg>
