<svg width="217" height="111" viewBox="0 0 217 111" fill="none" xmlns="http://www.w3.org/2000/svg">
<g clip-path="url(#clip0_1860_195)">
<path d="M35.9062 65.8755L42.226 59.43V51.8138H39.4158V49.8089H48.9812L53.5199 56.1736V47.925L59.048 42.2734H40.8275L35.9062 47.2926V65.8755Z" fill="#F0EDE8"/>
<path d="M55.6243 48.7982V59.8457H53.8168L49.2782 53.481V59.8457H47.1804V51.7989H44.3569V60.2763L37.3906 67.3812H55.6243L60.5456 62.362V43.7656L55.6243 48.7982Z" fill="#F0EDE8"/>
<path d="M68.4241 52.2402H65.4688V49.8047H74.1106V52.2402H71.1552V59.843H68.4241V52.2402Z" fill="#F0EDE8"/>
<path d="M75.5469 49.8047H83.4763V52.173H78.2516V53.6935H82.9749V55.8869H78.2516V57.4747H83.5423V59.843H75.5469V49.8047Z" fill="#F0EDE8"/>
<path d="M88.0392 54.7431L84.8068 49.8047H87.9469L89.6884 52.6305L91.4432 49.8047H94.5041L91.2717 54.7162L94.6493 59.8564H91.5092L89.6225 56.8288L87.7226 59.8564H84.6484L88.026 54.7431H88.0392Z" fill="#F0EDE8"/>
<path d="M95.9531 49.8047H98.6842V53.559H102.194V49.8047H104.925V59.8564H102.194V56.0349H98.6842V59.8564H95.9531V49.8047Z" fill="#F0EDE8"/>
<path d="M106.555 54.8225C106.555 51.9429 108.837 49.6016 111.872 49.6016C114.906 49.6016 117.162 51.916 117.162 54.8225C117.162 57.7291 114.88 60.0435 111.845 60.0435C108.798 60.0435 106.555 57.7291 106.555 54.8225ZM114.379 54.8225C114.379 53.3693 113.349 52.1044 111.845 52.1044C110.341 52.1044 109.352 53.3424 109.352 54.8225C109.352 56.3027 110.381 57.5407 111.872 57.5407C113.376 57.5407 114.379 56.3027 114.379 54.8225Z" fill="#F0EDE8"/>
<path d="M118.805 49.8047H121.536V53.559H125.045V49.8047H127.776V59.8564H125.045V56.0349H121.536V59.8564H118.805V49.8047Z" fill="#F0EDE8"/>
<path d="M129.906 49.8047H132.611V55.4563L136.424 49.8047H138.97V59.8564H136.266V54.2048L132.453 59.8564H129.906V49.8047Z" fill="#F0EDE8"/>
<path d="M141.099 49.8047H143.83V53.8819L147.221 49.8047H150.453L146.72 54.1241L150.572 59.8564H147.3L144.82 56.1291L143.817 57.2594V59.8564H141.086V49.8047H141.099Z" fill="#F0EDE8"/>
<path d="M150.609 54.8225C150.609 51.9429 152.892 49.6016 155.926 49.6016C158.961 49.6016 161.217 51.916 161.217 54.8225C161.217 57.7291 158.935 60.0435 155.9 60.0435C152.866 60.0435 150.609 57.7291 150.609 54.8225ZM158.433 54.8225C158.433 53.3693 157.404 52.1044 155.9 52.1044C154.396 52.1044 153.406 53.3424 153.406 54.8225C153.406 56.3027 154.436 57.5407 155.926 57.5407C157.431 57.5407 158.433 56.3027 158.433 54.8225Z" fill="#F0EDE8"/>
<path d="M173.419 49.8047H176.151V52.9669H177.641C180.003 52.9669 181.731 54.1107 181.731 56.3847C181.731 58.6588 180.188 59.8564 177.773 59.8564H173.406V49.8047H173.419ZM177.575 57.5151C178.473 57.5151 179.014 57.0979 179.014 56.304C179.014 55.6043 178.473 55.1468 177.589 55.1468H176.151V57.5151H177.575Z" fill="#F0EDE8"/>
<path d="M163.625 49.8047V54.2183C163.625 55.2544 163.519 56.7615 162.846 57.2998C162.529 57.5554 162.002 57.7438 161.672 57.7438V60.1121H161.936C162.886 60.1121 163.941 59.7219 164.35 59.4662C165.999 58.4032 166.197 56.3713 166.197 54.0837V52.2537H168.559V59.8564H171.29V49.8047H163.638H163.625Z" fill="#F0EDE8"/>
</g>
<defs>
<clipPath id="clip0_1860_195">
<rect width="145.817" height="25.1226" fill="white" transform="translate(35.9062 42.2656)"/>
</clipPath>
</defs>
</svg>
