<svg width="217" height="111" viewBox="0 0 217 111" fill="none" xmlns="http://www.w3.org/2000/svg">
<g clip-path="url(#clip0_1860_95)">
<path d="M98.7947 44.9215L97.1048 53.6735H94.8255L92.6641 43.0234H94.498L96.0045 51.2614H96.0307L97.6288 43.0234H99.9999L101.598 51.2614H101.624L103.183 43.0234H104.952L102.751 53.6735H100.432L98.7816 44.9215H98.7947Z" fill="#F0EDE8"/>
<path d="M107.654 45.6953C109.252 45.6953 111.086 46.5389 111.086 49.7155C111.086 52.892 109.252 53.7751 107.654 53.7751C106.055 53.7751 104.195 52.9843 104.195 49.7155C104.222 46.5125 106.095 45.6953 107.654 45.6953ZM107.654 52.4702C108.859 52.4702 109.16 51.0731 109.16 49.7418C109.16 48.4106 108.885 47.0529 107.654 47.0529C106.422 47.0529 106.147 48.4501 106.147 49.7418C106.147 51.0335 106.448 52.4702 107.654 52.4702Z" fill="#F0EDE8"/>
<path d="M112.003 47.1081C112.003 46.66 111.977 46.2645 111.938 45.8032H113.654C113.68 46.2909 113.719 46.7654 113.719 47.2531H113.745C113.981 46.6468 114.557 45.7109 115.736 45.7109C115.828 45.7109 115.946 45.7373 116.038 45.7373V47.5167C115.854 47.4903 115.671 47.4244 115.527 47.4244C114.741 47.4244 113.902 47.9121 113.902 49.362V53.659H112.042L112.016 47.0949L112.003 47.1081Z" fill="#F0EDE8"/>
<path d="M116.844 42.2266H118.743V53.6675H116.844V42.2266Z" fill="#F0EDE8"/>
<path d="M126.415 42.2266V52.3362C126.415 52.7844 126.441 53.2457 126.48 53.6675H124.712C124.686 53.2721 124.646 52.8503 124.646 52.4549H124.62C124.319 53.1271 123.742 53.7861 122.55 53.7861C120.625 53.7861 119.812 51.9408 119.812 49.766C119.812 47.1957 120.834 45.7063 122.524 45.7063C123.402 45.6799 124.175 46.1544 124.541 46.9453H124.568V42.2266H126.428H126.415ZM123.048 52.3626C124.162 52.3626 124.528 51.15 124.528 49.7001C124.528 48.2502 124.109 47.0639 123.087 47.0639C122.066 47.0639 121.673 48.092 121.673 49.6605C121.673 51.4795 121.974 52.3494 123.061 52.3494L123.048 52.3626Z" fill="#F0EDE8"/>
<path d="M132 43.0234H133.952V47.3467H137.083V43.0234H139.008V53.6735H137.083V48.9548H133.952V53.6472H132V43.0234Z" fill="#F0EDE8"/>
<path d="M145.903 53.2875C145.182 53.617 144.37 53.8015 143.584 53.8015C141.056 53.8015 139.969 51.9826 139.969 49.8736C139.969 47.5406 141.2 45.6953 143.191 45.6953C144.881 45.6953 146.322 46.6575 146.322 49.9V50.2691H141.816C141.816 51.6003 142.353 52.4175 143.807 52.4175C144.947 52.4175 145.523 52.0485 145.85 51.8112L145.916 53.3006L145.903 53.2875ZM144.488 49.0828C144.488 47.6856 144.043 47.0002 143.165 47.0002C142.169 47.0002 141.777 48.0547 141.777 49.0828H144.488Z" fill="#F0EDE8"/>
<path d="M147.52 46.2596C148.306 45.8906 149.145 45.6797 149.983 45.6797C152.42 45.6797 152.996 46.866 152.996 48.8299V52.2437C152.996 52.6919 153.022 53.1532 153.088 53.6409H151.372C151.28 53.2718 151.254 52.9423 151.28 52.5864H151.254C150.769 53.2191 150.206 53.7727 149.053 53.7727C147.848 53.7727 146.734 52.9291 146.734 51.4792C146.734 49.3571 148.45 48.8167 150.861 48.8167H151.228V48.5136C151.228 47.7227 150.861 46.9978 149.787 46.9978C149.001 47.0241 148.28 47.3009 147.651 47.7886L147.533 46.2728L147.52 46.2596ZM151.214 49.8053H151.031C149.433 49.8053 148.477 50.1348 148.477 51.2947C148.45 51.9274 148.922 52.481 149.525 52.5073H149.669C150.782 52.5073 151.201 51.6638 151.201 50.2666V49.8185L151.214 49.8053Z" fill="#F0EDE8"/>
<path d="M154.719 42.2266H156.579V53.6675H154.719V42.2266Z" fill="#F0EDE8"/>
<path d="M158.742 44.1971L160.602 43.6172V45.8316H162.161V47.2287H160.602V51.3148C160.602 52.1583 160.904 52.4088 161.441 52.4088C161.676 52.4088 161.952 52.3429 162.135 52.2243V53.5555C161.742 53.74 161.297 53.7928 160.877 53.7928C159.489 53.7928 158.677 53.1601 158.677 51.4993V47.2024H157.445V45.8052H158.677L158.742 44.1971Z" fill="#F0EDE8"/>
<path d="M162.773 42.2266H164.634V46.8267H164.66C164.987 46.339 165.446 45.7063 166.585 45.7063C168.354 45.7063 168.904 47.0376 168.904 48.6061V53.6543H167.044V48.962C167.044 47.7493 166.743 47.2353 165.957 47.2353C165 47.2353 164.634 48.0788 164.634 49.0806V53.6543H162.773V42.2266Z" fill="#F0EDE8"/>
<path d="M96.955 56.5156C99.1557 56.5156 101.16 58.1764 101.16 61.9988C101.16 65.8213 99.1426 67.4821 96.955 67.4821C94.7673 67.4821 92.75 65.8213 92.75 61.9988C92.75 58.1764 94.7673 56.5156 96.955 56.5156ZM96.955 65.9926C98.1863 65.9926 99.1819 64.9382 99.1819 61.9988C99.1819 59.0595 98.1863 58.0314 96.955 58.0314C95.7236 58.0314 94.728 59.0859 94.728 61.9988C94.728 64.8986 95.7236 65.9926 96.955 65.9926Z" fill="#F0EDE8"/>
<path d="M101.995 60.7487C101.995 60.3006 101.969 59.9052 101.93 59.4438H103.646C103.672 59.9315 103.711 60.406 103.711 60.8937H103.737C103.973 60.2874 104.576 59.3516 105.729 59.3516C105.82 59.3516 105.938 59.3779 106.03 59.3779V61.1573C105.846 61.131 105.663 61.0651 105.493 61.0651C104.707 61.0651 103.868 61.5528 103.868 63.0026V67.2996H102.008V60.7355L101.995 60.7487Z" fill="#F0EDE8"/>
<path d="M106.914 68.5571C107.608 68.9789 108.421 69.1898 109.233 69.2294C111.001 69.2294 111.276 67.9904 111.276 66.7514V66.0001H111.25C110.949 66.6064 110.412 67.3313 109.207 67.3313C108.119 67.3313 106.469 66.6064 106.469 63.4298C106.469 61.255 107.255 59.3438 109.298 59.3438C110.438 59.3438 110.949 59.9764 111.342 60.675H111.407C111.407 60.2532 111.434 59.8578 111.473 59.4624H113.189C113.163 59.8842 113.123 60.2796 113.123 60.7014V66.4877C113.123 68.9657 112.377 70.6924 109.508 70.6924C108.604 70.6924 107.674 70.5079 106.836 70.2047L106.927 68.5703L106.914 68.5571ZM109.652 65.921C110.831 65.921 111.303 65.0774 111.303 63.2848C111.303 61.624 110.674 60.7409 109.796 60.7673C108.8 60.7936 108.407 61.7031 108.407 63.3112C108.407 65.1565 108.984 65.9078 109.639 65.9078L109.652 65.921Z" fill="#F0EDE8"/>
<path d="M114.809 59.9081C115.595 59.5127 116.434 59.3281 117.272 59.3281C119.709 59.3281 120.285 60.5144 120.285 62.4783V65.8922C120.285 66.3403 120.311 66.8016 120.377 67.2893H118.661C118.569 66.9203 118.543 66.5907 118.569 66.2349H118.543C118.058 66.8675 117.495 67.4211 116.342 67.4211C115.137 67.4211 114.023 66.5776 114.023 65.1277C114.023 63.0056 115.739 62.4652 118.15 62.4652H118.517V62.162C118.517 61.3711 118.15 60.6462 117.076 60.6462C116.29 60.6726 115.569 60.9494 114.94 61.4371L114.823 59.9213L114.809 59.9081ZM118.504 63.4801H118.32C116.722 63.4801 115.766 63.8096 115.766 64.9695C115.739 65.6022 116.211 66.1558 116.814 66.1821H116.958C118.071 66.1821 118.49 65.3386 118.49 63.9414V63.4933L118.504 63.4801Z" fill="#F0EDE8"/>
<path d="M121.784 60.7517C121.784 60.3035 121.758 59.9081 121.719 59.4468H123.487C123.513 59.8422 123.553 60.264 123.553 60.6594H123.579C123.854 60.1717 124.391 59.3281 125.649 59.3281C127.417 59.3281 127.967 60.6594 127.967 62.2279V67.2761H126.068V62.5574C126.068 61.3448 125.767 60.8307 124.981 60.8307C124.024 60.8307 123.657 61.6743 123.657 62.676V67.2498H121.797V60.7385H121.771L121.784 60.7517Z" fill="#F0EDE8"/>
<path d="M129.398 56.1016H131.35V57.9469H129.398V56.1016ZM129.425 59.4627H131.285V67.3316H129.425V59.4627Z" fill="#F0EDE8"/>
<path d="M132.789 65.6798L136.13 60.8952H132.881V59.4453H137.99V61.0534L134.715 65.8644H138.108V67.3143H132.75L132.776 65.6798H132.789Z" fill="#F0EDE8"/>
<path d="M139.52 59.9081C140.306 59.5127 141.145 59.3281 141.983 59.3281C144.42 59.3281 144.996 60.5144 144.996 62.4783V65.8922C144.996 66.3403 145.022 66.8016 145.088 67.2893H143.372C143.28 66.9203 143.254 66.5907 143.28 66.2349H143.254C142.769 66.8675 142.206 67.4211 141.053 67.4211C139.848 67.4211 138.734 66.5776 138.734 65.1277C138.734 63.0056 140.45 62.4652 142.861 62.4652H143.228V62.162C143.228 61.3711 142.861 60.6462 141.787 60.6462C141.001 60.6726 140.28 60.9494 139.651 61.4371L139.533 59.9213L139.52 59.9081ZM143.214 63.4801H143.031C141.433 63.4801 140.477 63.8096 140.477 64.9695C140.45 65.6022 140.922 66.1558 141.525 66.1821H141.669C142.782 66.1821 143.201 65.3386 143.201 63.9414V63.4933L143.214 63.4801Z" fill="#F0EDE8"/>
<path d="M147.047 57.8534L148.907 57.2734V59.4878H150.466V60.885H148.907V64.971C148.907 65.8146 149.208 66.065 149.745 66.065C149.981 66.065 150.256 66.0387 150.44 65.8805V67.2118C150.047 67.3963 149.601 67.4886 149.182 67.449C147.794 67.449 146.981 66.8163 146.981 65.1819V60.885H145.75V59.4878H146.981L147.047 57.8534Z" fill="#F0EDE8"/>
<path d="M151.609 56.1016H153.535V57.9469H151.609V56.1016ZM151.636 59.4627H153.535V67.3316H151.675L151.649 59.4627H151.636Z" fill="#F0EDE8"/>
<path d="M158.013 59.3281C159.611 59.3281 161.445 60.1717 161.445 63.3483C161.445 66.5248 159.611 67.408 158.013 67.408C156.415 67.408 154.555 66.6567 154.555 63.3483C154.581 60.1717 156.415 59.3281 158.013 59.3281ZM158.013 66.1031C159.218 66.1031 159.519 64.7059 159.519 63.3746C159.519 62.0434 159.244 60.6857 158.013 60.6857C156.782 60.6857 156.507 62.0829 156.507 63.3746C156.507 64.6663 156.782 66.1031 158.013 66.1031Z" fill="#F0EDE8"/>
<path d="M162.933 60.7517C162.933 60.3035 162.906 59.9081 162.867 59.4468H164.636C164.662 59.8422 164.701 60.264 164.701 60.6594H164.727C165.002 60.1717 165.54 59.3281 166.797 59.3281C168.566 59.3281 169.116 60.6594 169.116 62.2279V67.2761H167.256V62.5574C167.256 61.3448 166.954 60.8307 166.168 60.8307C165.212 60.8307 164.845 61.6743 164.845 62.676V67.2498H162.985L162.92 60.7385L162.933 60.7517Z" fill="#F0EDE8"/>
<path d="M81.3353 42.8864C82.1475 43.8486 83.5622 44.4285 84.4006 45.4303C83.798 42.5569 81.5973 40.1975 78.9905 39.6175C80.248 40.5797 80.5231 41.911 81.3353 42.8864ZM49.8962 50.2149C51.7039 46.2475 54.3763 47.1042 55.5159 43.3477C54.8479 44.4681 51.9004 44.9558 50.5774 47.9214C51.2717 46.1684 50.9442 43.5059 52.0838 42.0164C48.5993 44.6526 50.0665 48.8836 49.8831 50.2149M53.1318 59.6919C53.4593 61.2077 52.503 63.4484 54.0357 65.5573C52.4768 63.8043 49.1626 63.343 47.8134 60.6541C49.5032 67.1918 53.8916 65.8605 55.8696 67.284C54.2191 64.9247 55.5683 63.3562 53.1318 59.6919ZM52.6209 63.8043C51.6646 60.14 53.3676 58.8747 52.0445 55.3554C51.9266 57.3589 50.6036 58.2947 51.4682 61.9194C49.9093 58.8351 47.499 57.6884 46.8047 55.5927C46.8702 61.3395 51.4682 62.1962 52.6078 63.7911M59.6816 69.907C58.3324 68.0353 59.2362 66.9677 55.4766 63.5539C56.2888 64.7929 55.4504 66.3746 58.0049 68.7866C55.5028 67.2972 52.0445 67.9431 50.3678 65.9396C53.2235 71.4755 58.28 69.2084 59.6947 69.907M78.0735 68.813C80.6279 66.3614 79.7895 64.7929 80.6017 63.5802C76.8159 66.9941 77.746 68.0617 76.3574 69.9334C77.7984 69.2348 82.8287 71.5019 85.6844 65.966C84.0338 67.9694 80.5755 67.2972 78.0735 68.813ZM82.0427 65.5442C83.5491 63.4221 82.6191 61.2209 82.9204 59.6787C80.4838 63.3693 81.8069 64.9115 80.1825 67.3104C82.1737 65.8869 86.5621 67.2181 88.2388 60.6805C86.9157 63.3166 83.6015 63.7911 82.0427 65.5573M75.9645 70.1838C74.6152 69.8147 73.2266 69.6039 71.8119 69.5511C70.515 69.5248 69.2312 69.7357 68.0261 70.1838C66.8209 69.7357 65.5241 69.5116 64.2403 69.5511C62.8255 69.5775 61.437 69.8279 60.0877 70.1838C57.8084 70.7901 55.8172 71.2778 54.1012 70.3947C55.7517 71.8446 57.6774 72.3982 60.4414 72.095C62.76 71.8578 64.6202 70.6715 66.7816 70.6979H66.8733C65.4848 71.3964 64.2927 72.3586 63.2578 73.5185L64.3058 73.6635C64.3058 73.6635 65.4193 71.4228 67.9737 70.8428C70.5281 71.4228 71.6416 73.6635 71.6416 73.6635L72.6895 73.5185C71.694 72.3323 70.4626 71.3964 69.0741 70.6979H69.1657C71.3665 70.6715 73.2266 71.8446 75.506 72.095C78.3093 72.3982 80.1956 71.8578 81.8462 70.3947C80.1956 71.2778 78.2045 70.7901 75.9252 70.1838M52.241 51.3616C51.311 53.1806 49.8307 53.6024 49.9879 57.3589C49.2019 54.0241 47.3156 52.7852 47.3418 50.6762C46.0187 56.2385 49.5425 56.8844 50.4333 59.2437C50.2892 55.8826 52.4244 55.2236 52.241 51.3748M53.5641 47.1042C53.2366 47.5524 52.9877 47.7764 52.1231 48.5014C50.8001 49.5559 49.8962 51.0453 49.5949 52.6797C49.6866 50.6235 48.4159 47.7105 49.2674 45.5621C46.0449 50.1358 49.4508 52.8906 49.5687 54.5514C50.3809 51.3484 52.3065 51.3089 53.5641 47.1042ZM86.4966 52.6402C86.1691 50.9794 85.2652 49.49 83.9683 48.4619C83.0907 47.7369 82.8549 47.5524 82.5274 47.0647C83.7587 51.2957 85.7106 51.2957 86.5228 54.5118C86.6407 52.8511 90.0466 50.1226 86.824 45.5225C87.6624 47.671 86.4311 50.6103 86.4966 52.6402ZM89.2344 55.6058C88.5401 57.728 86.1036 58.8483 84.5709 61.9326C85.4748 58.2947 84.1255 57.3589 83.9945 55.3686C82.6715 58.8747 84.4137 60.1532 83.4181 63.8175C84.5971 62.2094 89.1951 61.3659 89.2213 55.619M83.8111 51.388C83.6277 55.1972 85.763 55.8958 85.6189 59.2306C86.5228 56.8976 90.0073 56.2385 88.7104 50.663C88.7366 52.7852 86.8502 54.0241 86.0643 57.3853C86.2477 53.6287 84.7674 53.2069 83.8111 51.388ZM54.7693 42.8864C55.5814 41.9242 55.8565 40.5534 57.1403 39.6175C54.4942 40.1975 52.2934 42.5173 51.6908 45.4039C52.503 44.4417 53.944 43.8618 54.7562 42.8864M80.5624 43.3082C81.7021 47.0647 84.3875 46.2475 86.1822 50.1754C85.9988 48.8441 87.5052 44.6131 83.9814 42.0296C85.1604 43.4795 84.8198 46.1816 85.4879 47.9346C84.1386 44.9689 81.1912 44.4812 80.5493 43.3082M71.4058 45.4566C70.7115 45.1535 69.991 44.9689 69.2705 44.8767V45.3644C69.9648 45.4566 70.6198 45.6675 71.2617 45.9048C71.3272 45.7598 71.3796 45.6016 71.4058 45.4566ZM70.8687 40.7906L71.0128 40.672L70.7377 40.5534L70.0172 40.527L69.8338 40.6456L69.4146 40.6193V40.7115C69.6897 40.7379 69.9517 40.7379 70.1613 40.8038L70.5281 40.7774L70.8556 40.8038L70.8687 40.7906ZM69.4801 56.4099C69.4801 56.2912 69.2967 56.1726 69.0872 56.0408H69.061C69.061 56.1331 69.0348 56.6208 69.0348 56.8844C69.3098 56.7394 69.4801 56.6076 69.4801 56.3967M61.1488 47.1965C61.175 47.1042 61.175 47.012 61.2143 46.9197C61.1226 46.9461 61.0309 46.9461 60.913 46.9461L61.1488 47.1833V47.1965ZM57.8084 43.8354L59.5244 45.5621C57.4809 47.7105 56.3019 50.6103 56.2757 53.576H53.8654C53.8654 49.9117 55.2801 46.4584 57.8084 43.8354ZM56.7604 57.1875L56.6163 57.1612L56.4722 57.0162L55.7779 56.9503L55.9875 57.2534L55.3587 57.1348L55.5421 56.9898L55.398 56.8448L54.9527 57.0294L54.7693 57.3325L54.8348 58.0311L55.3456 59.2701L55.5814 59.6655L55.7255 59.6919L55.3325 58.9406L55.2408 58.5715L55.3325 58.4793L55.267 58.2684L55.5028 58.2947L55.8696 58.8351L55.9613 58.8615V58.4661L56.1054 58.5583L56.1316 58.7692L56.4984 58.8615L56.6818 58.7429L56.7473 58.7692V59.0724L56.9307 59.2833L57.1403 59.3096L57.5857 60.061L57.8608 60.1532L57.9525 59.7842C58.4372 60.575 58.9742 61.2999 59.603 61.9326L57.887 63.6593C55.3587 61.0891 53.8916 57.6357 53.8261 54.011H56.2364C56.3019 55.1313 56.4722 56.1858 56.7735 57.1875M59.1445 54.0373C59.1445 54.2746 59.1707 54.4855 59.21 54.7359L58.9087 54.8018L58.8432 55.105L58.2145 55.8958L58.2407 56.9898L57.6119 57.2007H57.2451C56.9176 56.1726 56.7342 55.1445 56.708 54.0505C56.7342 54.0505 59.1445 54.0505 59.1445 54.0505V54.0373ZM59.6816 60.8782L60.2187 61.1813L60.3104 61.2736L59.9174 61.669C59.734 61.4845 59.5506 61.2999 59.4065 61.0891L59.6816 60.8782ZM61.8824 47.961L63.5984 49.6877C63.2316 50.0831 62.9303 50.5312 62.6945 51.0189H62.5766L62.3408 51.0848H62.2491L62.0134 51.3221L62.3408 51.2957L62.6421 51.2298L62.5766 51.3221L62.3408 51.5066H62.2229L61.8562 51.8098L61.4894 51.7834L60.9785 52.7456L61.0702 52.9301L60.7689 53.2597L60.7427 53.6814H59.6554C59.6554 51.4671 60.4676 49.4768 61.8824 47.961ZM63.6246 55.0391L63.7425 54.9732L64.0438 55.2104L63.8997 55.3027L64.2665 55.5399L64.2403 55.3027L64.4237 54.9995L64.6333 55.2104L64.8429 55.5136L64.4761 55.6058L64.6595 55.9354L64.8953 55.7904L64.8691 55.6981L65.0525 55.5795L65.1442 55.0654C65.2883 55.3686 65.4717 55.6717 65.7205 55.909L64.0045 57.6357C63.1661 56.7526 62.6552 55.6322 62.498 54.4328L62.8648 54.8018H63.1923L63.6377 55.0391H63.6246ZM61.1881 53.2201L61.2143 52.7324L61.5156 52.5479L62.0265 52.6402L62.1182 52.7324C62.092 53.0092 62.0527 53.3124 62.0265 53.576H61.4501L61.175 53.2069L61.1881 53.2201ZM60.4021 54.8809L60.1663 55.25H59.7733L59.7471 55.2236C59.6816 54.8545 59.6554 54.4328 59.6292 54.0769H60.3497L60.1663 54.6568L60.4021 54.8941V54.8809ZM62.0003 59.5996C61.8169 59.4151 61.6335 59.2306 61.4894 59.0197L61.5811 58.4134L61.3453 57.8334L61.2798 56.9239L60.9785 56.344L61.044 55.9749L60.6772 55.3027L60.3759 55.1577L60.4938 54.7886L60.3759 54.5118L60.4938 54.2087H60.8213L60.9392 54.0241H61.5156L61.6073 54.2087L61.4894 54.7886L61.4239 54.8809L61.6335 55.329L61.4894 55.4213L61.3977 55.3027L61.3715 55.329L61.4632 55.6058L61.6466 55.909H61.7383L61.7645 55.6058L61.6728 55.5136V55.329L61.6466 54.9336L61.7645 54.235L61.6466 54.0505H62.0396C62.1313 55.5004 62.7076 56.8712 63.6901 57.8993L62.0003 59.5601V59.5996ZM76.5015 61.959C78.5451 59.8369 79.7502 56.9898 79.8157 54.0637H82.2261C82.1344 57.662 80.7196 61.1154 78.1914 63.6857L76.5015 61.959ZM75.8335 61.2604L76.0169 61.0495L75.8335 60.1137L75.7156 60.0873L75.8073 59.9028L75.4143 59.7842L75.3226 60.1137L75.2964 60.5355L75.2047 60.6277L74.4842 59.9028C75.9907 58.2947 76.8552 56.2385 76.9469 54.0637H79.3573C79.2656 56.9107 78.1521 59.5996 76.174 61.6295L75.8466 61.2604H75.8335ZM73.7244 63.5539L73.9602 63.0662L73.8685 62.8553L74.196 62.5521V62.3676L73.8947 62.1831L74.1305 61.6954L74.4973 61.2472L74.1305 60.8782H73.8554L73.672 60.6014C73.8161 60.4827 73.9733 60.3641 74.0912 60.2323L75.8073 61.959C75.1785 62.5389 74.458 63.0794 73.6982 63.5275M73.3707 58.8088L73.1349 58.5715L73.3183 58.3343L73.5541 57.8861L73.4624 57.7675L73.6065 57.438L73.5803 57.1348L73.4886 56.8317L73.279 56.7658L73.1873 56.9503L73.0694 56.9239C73.2528 56.6471 73.4362 56.344 73.5803 56.0408L73.7899 55.9485L73.9078 55.764L73.9733 55.8299L74.1174 55.6454L73.9995 55.5004L74.0912 55.474L74.2746 55.5663H74.6414L74.8772 55.4477L75.4536 55.2631L75.3619 55.0786L75.3357 54.8414L75.637 54.9863L75.7549 54.9204L75.6894 54.6832L75.2964 54.8282L74.8772 54.7359L74.5497 54.0637H76.3836C76.2919 56.1199 75.4798 58.0838 74.065 59.5733L73.8292 59.336L73.9209 59.0065L73.7375 58.2552L73.3707 58.8351V58.8088ZM72.4931 49.6745L74.2091 47.9478C74.6021 48.3959 74.9558 48.8573 75.2571 49.3713L75.0475 49.4372L75.0737 49.8063L75.7025 50.2017C75.8859 50.5708 76.0038 50.9003 76.0955 51.2957L76.0038 51.4803L75.768 51.6648L75.7025 52.0338L75.5191 52.1261L75.4012 52.3106L75.2833 52.2447H75.0475L75.1654 52.0602L75.2571 51.5725L75.4405 51.4803L74.9951 51.0321L74.6676 51.1507L74.5759 51.4803L74.3663 51.7175L74.1305 51.533L74.0388 51.3221L74.1567 51.2298L74.2222 51.3484L74.3139 51.3221L74.2877 51.1112H74.1436V51.2035L74.0519 51.2298L73.541 50.5971L73.3576 50.4522L73.4231 50.3862L73.6065 50.3203L73.4231 50.2544C73.4231 50.2544 73.2397 50.2808 73.2135 50.2808L73.3052 50.4258H73.0301C72.886 50.1226 72.7027 49.8854 72.5193 49.6745M72.7943 59.0197L72.2835 58.8747L72.1001 58.9406L71.7988 58.7033L71.5237 58.6111C71.6678 58.5188 71.7988 58.4002 71.9167 58.3079L72.3621 58.6111L72.6895 58.7956L72.8729 58.9801L72.7812 59.046L72.7943 59.0197ZM71.8643 50.9662L72.0739 50.9398V50.9135L71.8643 50.7685L71.9298 50.3203L72.1656 50.0435C72.349 50.2281 72.4669 50.4126 72.611 50.6235L72.5193 50.9003L72.2835 50.7158L72.1001 50.7421L72.1918 50.9267H72.2835L72.1918 51.1639L72.1263 51.0716L71.8512 50.9794L71.8643 50.9662ZM74.7462 52.627L75.1916 52.3897L75.637 52.3238L75.7287 52.1129L75.9645 51.9679L76.0562 51.757L76.1479 51.388C76.174 51.5066 76.2134 51.6252 76.2395 51.757L76.0038 52.4556V52.6929L76.305 52.2052C76.3705 52.627 76.3967 53.0488 76.4229 53.4706H74.3139L74.2877 53.286L74.5235 53.1015L74.5497 52.9829L74.6414 52.8906L74.9427 52.8642L74.9689 52.7456L74.7331 52.627H74.7462ZM75.2309 46.9724L75.8073 46.9988L75.9514 47.1833L75.8859 47.4206L76.698 47.9346L76.8814 47.9083L77.9032 49.0945L78.3224 48.9495C78.9905 50.3994 79.3442 51.9811 79.3704 53.576H76.96C76.96 52.9433 76.8683 52.337 76.7242 51.7307L76.8159 51.5857L76.96 50.7949L76.8683 49.9776L76.567 49.0418L75.899 48.0796L76.0824 48.1719L76.174 48.0796L75.637 47.7105L75.6108 47.8292L76.1479 48.62L76.4491 49.2527L76.6587 49.8854L76.7242 50.3072L76.8159 51.0057L76.6063 51.0321C76.6063 51.0321 76.3705 50.584 76.305 50.3994L76.3967 50.2149L76.1871 49.9117V49.6349L76.0431 49.4504L75.8597 49.4768C75.7942 49.3581 75.7418 49.2395 75.6501 49.1077L75.768 49.1736L75.7942 49.1473L75.7287 49.0023L75.9121 48.91L75.8466 48.8177L75.6108 48.91L75.7025 48.5409L75.5584 48.4487L75.4405 48.7518C75.1654 48.3564 74.8641 47.961 74.5628 47.6315L75.2309 46.9592V46.9724ZM78.2962 43.8618C80.7982 46.4584 82.1737 49.9381 82.2392 53.576H79.8288C79.8026 51.7966 79.3835 50.004 78.5975 48.3959L78.6237 48.3696L78.8071 48.4619L78.8333 48.3432L78.3879 47.5919L77.877 46.8933L77.2744 46.3793C77.0648 46.142 76.8552 45.8652 76.6456 45.628L78.2962 43.8749V43.8618ZM68.0392 68.4308C76.1348 68.4308 82.7108 61.8008 82.6846 53.6287C82.6846 46.0629 76.9993 39.7362 69.5063 38.9453L69.4801 39.0376C69.4539 39.1826 69.4146 39.3144 69.3884 39.433C72.611 39.7362 75.6108 41.1597 77.9294 43.4531L76.305 45.0876L76.3705 44.7844L76.1609 44.6921L75.8859 44.7185L75.9514 44.534L75.768 43.8618L75.375 43.4136L74.1174 42.7414L74.0257 42.86L73.7899 42.9259C74.2353 43.5586 74.458 44.3231 74.458 45.048V45.3512L75.0868 46.142L74.7855 46.2079L74.9689 46.5111L74.3925 47.091L74.1567 46.6693C74.065 46.9724 73.9209 47.2492 73.7375 47.5128L73.8554 47.6051L72.1394 49.3318C72.0477 49.2395 71.9298 49.1473 71.8381 49.0286C71.6547 49.1209 71.5106 49.1736 71.3272 49.2395L71.4713 49.3318L71.3796 49.424L71.17 49.5163L71.0783 49.7272L70.9604 49.6086L70.5936 49.7272L70.6853 49.9117L70.9211 49.8458L71.1045 49.8722L71.1307 49.7799L71.2486 49.714L71.2748 49.6481L71.5106 49.5822H71.694L71.7857 49.6745L71.1176 50.3731L71.0914 50.3072L70.3971 50.4258L70.2137 50.6103L70.0696 50.6367L70.515 50.2149L70.3316 50.1226L69.9124 50.663L70.0303 50.6367V50.8476L70.1744 50.9135L70.2006 51.1244L69.9648 51.098L69.729 51.1244L69.1003 50.8212C69.1003 50.8212 69.0741 52.482 69.0741 53.3387C70.515 53.8528 72.087 54.5514 72.087 56.4231C72.1132 57.2139 71.694 57.9652 71.039 58.4265L71.0128 58.4529L70.9866 58.4793C70.4102 58.8747 69.6373 59.0856 68.9693 59.2965L68.9431 60.6277C69.991 61.1418 71.2617 61.9326 71.1438 64.1075C71.1176 64.6479 70.908 64.806 70.7508 64.8324C70.122 64.9774 69.4932 65.0697 68.8514 65.1356V65.6233C71.5892 65.4387 74.1698 64.292 76.1609 62.3808L77.877 64.1075C72.4014 69.4325 63.7425 69.4325 58.2669 64.1338L59.9829 62.4071C61.9741 64.2524 64.5285 65.3992 67.2008 65.6101V65.1224C64.6202 64.9115 62.2098 63.857 60.3497 62.0381L60.7951 61.5899L61.4239 61.6558L61.7514 61.2868L62.629 61.3131L62.7469 61.01L62.7207 60.8913C64.0176 61.8535 65.5503 62.4994 67.1746 62.6708V62.1831C65.4062 61.9722 63.7163 61.2209 62.3932 59.9687L64.1093 58.242C64.5285 58.6111 64.987 58.9406 65.4979 59.1778C65.5241 58.9933 65.5896 58.8747 65.6812 58.7297C65.2359 58.4924 64.8429 58.2156 64.4761 57.9125L66.1921 56.1858C66.4672 56.3967 66.7685 56.5812 67.096 56.6999V56.1858C66.8864 56.0935 66.703 55.9749 66.5196 55.8563L67.0043 55.3686C66.8209 55.3422 66.6768 55.2763 66.4934 55.1841L66.1659 55.5136C65.9825 55.329 65.8646 55.1182 65.7467 54.9073C65.4455 54.7886 65.1704 54.6305 64.9084 54.4591C63.9128 53.8528 63.3102 52.7324 63.3102 51.5593C63.284 50.7685 63.5198 49.9513 64.0045 49.345L62.2884 47.6183C63.5198 46.4056 65.1442 45.6148 66.834 45.3512V44.8635C65.0001 45.1403 63.284 45.9839 61.961 47.2492L61.6597 46.9461C61.5942 47.0383 61.5156 47.1833 61.4239 47.3942L61.6073 47.5787C60.1008 49.1868 59.2362 51.3353 59.1969 53.5365H56.7604C56.7866 50.663 57.9001 47.9346 59.8912 45.8521L60.6772 46.6429H60.7689C60.913 46.6165 61.0702 46.577 61.2143 46.5243L60.258 45.5621C60.7689 45.048 61.3453 44.5999 61.9479 44.2045C61.9741 44.0858 62.0134 43.9672 62.0658 43.8354C62.1575 43.6509 62.3015 43.5059 62.4325 43.3213C61.5287 43.8354 60.6903 44.4417 59.9305 45.1667L58.2145 43.44C60.4938 41.1992 63.4805 39.8021 66.6637 39.4725C66.6637 39.4066 66.6375 39.3803 66.6375 39.3803C66.6113 39.2617 66.6113 39.143 66.572 39.0112C58.4765 39.8548 52.6471 47.091 53.4855 55.2368C54.2977 62.6839 60.5855 68.4044 68.0785 68.3649M75.2833 42.9523L75.1392 42.715L74.8379 42.5305L74.6021 42.715L74.9034 42.8996L75.2702 43.1368L75.2964 42.9523H75.2833ZM73.803 49.8195L73.8292 50.004L74.2484 49.8854L74.3663 49.6481L74.065 49.2791L74.2091 49.0418L74.6021 49.3186L74.6676 49.2527L74.5759 49.1868L74.4842 49.0023L74.6676 48.91L74.4842 48.6991L74.1174 48.8836L73.9995 49.1209L73.9078 49.3318L74.0912 49.6086L74.0257 49.7272L73.7899 49.8195H73.803ZM56.3936 60.6936L56.4198 60.6014L56.2102 60.1137L55.9744 60.0214L56.3936 60.6936ZM66.2314 51.5857C66.2314 52.0075 66.4672 52.2843 66.9257 52.5215V52.337L66.6506 52.0338L66.7947 51.757L66.9126 51.7307C66.8864 51.243 66.8864 50.7289 66.8864 50.6367H66.8602C66.4672 50.8739 66.2576 51.1771 66.2314 51.5725" fill="#F0EDE8"/>
<path d="M68.9375 62.1077C69.6842 62.4768 70.3785 63.0172 70.6798 64.0453C70.7976 62.3845 69.8676 61.6596 68.9637 61.1719L68.9375 62.1077Z" fill="#F0EDE8"/>
<path d="M73.9576 45.133C73.9576 43.6172 72.8441 41.93 70.1718 41.3501C69.8967 41.3237 69.6347 41.2578 69.3596 41.2578C69.3596 41.4951 69.3334 42.0091 69.3334 42.0091C69.3334 42.1936 69.3072 42.8 69.3072 42.9186C69.4906 42.945 69.674 42.945 69.8181 42.9845C71.377 43.3536 71.9272 44.2499 71.9272 45.133C71.9272 46.5829 70.6958 47.1365 69.1893 47.5187L68.6785 47.6373C68.2331 47.7296 67.7484 47.8746 67.2899 48.0064C67.1065 48.0327 66.9624 48.0986 66.779 48.1514C65.1285 48.6654 63.6875 49.4826 63.6875 51.5388C63.6875 53.595 65.3381 54.3595 66.9362 54.8736C66.9362 54.2936 66.91 53.6873 66.91 53.0942C66.1895 52.7647 65.7048 52.3033 65.7048 51.5784C65.7048 50.8534 66.1502 50.4317 66.8445 50.1285C66.9886 50.0626 67.1458 50.0099 67.3554 49.944C67.7484 49.799 68.1938 49.7067 68.6785 49.5749L69.1893 49.4563C71.4687 48.8763 73.9969 48.1909 73.9707 45.133" fill="#F0EDE8"/>
<path d="M65.8594 59.6301C65.8594 60.4737 66.462 60.8955 67.0645 61.2645C67.0645 61.1196 67.0383 59.841 67.0383 59.8147C67.0645 59.5774 67.2741 59.3929 67.4837 59.3006C67.785 59.1556 68.1125 59.0238 68.44 58.9315C68.6234 58.8656 68.7675 58.8129 68.9509 58.747C70.1823 58.3779 71.597 57.9034 71.597 56.414C71.597 54.9246 70.3918 54.2919 69.0688 53.8438C69.0426 54.3314 69.0426 55.03 69.0426 55.5045C69.619 55.7154 69.9727 55.9922 69.9727 56.414C69.9727 56.9544 69.3963 57.2576 69.0164 57.4157C68.833 57.4817 68.5972 57.5607 68.5055 57.6003C68.178 57.6925 67.8374 57.8112 67.5099 57.9298C67.3265 57.9957 67.1824 58.0484 66.999 58.1407C66.462 58.4439 65.8594 58.8656 65.8594 59.6301Z" fill="#F0EDE8"/>
<path d="M66.7163 41.4844C66.2054 41.6689 65.7208 41.8534 65.2361 42.0907C64.7252 42.2752 63.9785 42.3016 63.1925 43.1452C62.9567 43.4483 62.7078 43.7515 62.4982 44.0546C62.2625 44.3842 62.2625 44.9377 62.0791 45.2014C61.8433 45.6231 61.8957 45.8736 61.8957 45.8736C61.8695 46.0581 61.7516 46.2426 61.6206 46.3876C61.3848 46.6908 60.9918 46.8358 60.625 46.7567C60.9918 46.9412 61.4634 46.6908 61.4634 46.6908C61.3717 46.928 61.3193 47.1389 61.28 47.3894C61.673 46.4799 62.0267 46.1767 62.1577 46.0581C62.3411 46.0845 62.6685 46.0845 63.3366 45.6891C64.0571 45.2673 65.1706 44.5687 65.4719 44.1469C65.7994 43.6987 66.2578 43.356 66.7687 43.1847C66.7425 42.5784 66.7032 41.9984 66.7032 41.4844M63.6379 44.2655L63.2711 44.3578L63.7165 43.6065L64.2274 43.6328L63.6248 44.2655" fill="#F0EDE8"/>
<path d="M68.2513 59.5429C68.2513 59.5429 68.0155 59.6352 67.8845 59.6879C67.7666 59.7143 67.6094 59.7802 67.6094 59.8329C67.6094 59.8329 67.7273 66.2783 67.7273 66.397C67.7273 67.7282 68.3954 67.7282 68.3954 66.397C68.3954 66.3047 68.5394 59.4375 68.5394 59.4375C68.5394 59.4375 68.3299 59.4639 68.2382 59.5298" fill="#F0EDE8"/>
<path d="M67.5216 57.3905C67.7312 57.3246 67.9408 57.2456 68.1242 57.206C68.2683 57.1797 68.3993 57.1137 68.5434 57.0874C68.5434 56.692 68.6613 51.0901 68.6875 50.1016C68.2421 50.1938 67.8098 50.3388 67.3906 50.4706C67.4168 51.2219 67.5085 56.7974 67.5085 57.4037" fill="#F0EDE8"/>
<path d="M68.0899 36C66.2298 36 67.0026 38.8207 67.1598 39.717C67.1598 39.7433 67.3039 46.0438 67.3432 47.4937C67.6445 47.4014 67.9196 47.3487 68.1816 47.2828L68.758 47.1378C68.7842 45.7406 68.9414 39.717 68.9414 39.6906C69.0331 38.7548 70.0286 36 68.103 36" fill="#F0EDE8"/>
</g>
<defs>
<clipPath id="clip0_1860_95">
<rect width="122.298" height="37.6839" fill="white" transform="translate(46.8281 35.9922)"/>
</clipPath>
</defs>
</svg>
