<svg width="217" height="111" viewBox="0 0 217 111" fill="none" xmlns="http://www.w3.org/2000/svg">
<g clipPath="url(#clip0_1860_140)">
<path d="M98.3906 71.5601H102.149V72.3921H99.2681V73.9108H101.953V74.7429H99.2681V76.7106H98.3906V71.5469V71.5601Z" fill="#F0EDE8"/>
<path d="M105.517 71.5C107.023 71.5 108.149 72.5829 108.149 74.1545C108.149 75.7261 106.984 76.809 105.517 76.809C104.05 76.809 102.885 75.7261 102.885 74.1545C102.832 72.6358 103.958 71.5 105.517 71.5ZM105.517 75.977C106.538 75.977 107.219 75.2374 107.219 74.1545C107.219 73.0716 106.434 72.332 105.517 72.332C104.548 72.332 103.762 73.0716 103.762 74.1545C103.762 75.2374 104.548 75.977 105.517 75.977Z" fill="#F0EDE8"/>
<path d="M109.219 76.7106V71.5469H111.419C112.886 71.5469 113.37 72.2864 113.37 73.1713C113.37 73.9637 112.886 74.5051 112.244 74.69L113.711 76.7503H112.637L111.314 74.8881H110.149V76.7106H109.219ZM110.096 72.4317V74.0561H111.314C111.943 74.0561 112.388 73.7656 112.388 73.2637C112.388 72.7619 112.1 72.4713 111.262 72.4713H110.096V72.4185V72.4317Z" fill="#F0EDE8"/>
<path d="M116.188 71.5547H120.483V72.3867H118.781V76.7184H117.903V72.3867H116.201V71.5547H116.188Z" fill="#F0EDE8"/>
<path d="M124.922 74.5526H122.237V76.7184H121.359V71.5547H122.237V73.6677H124.922V71.5547H125.799V76.7184H124.922V74.5526Z" fill="#F0EDE8"/>
<path d="M127.209 71.5547H131.007V72.3867H128.086V73.7206H130.718V74.513H128.086V75.8864H131.059V76.7184H127.156V71.5547H127.209Z" fill="#F0EDE8"/>
<path d="M134.375 71.5601H138.134V72.3921H135.252V73.9108H137.937V74.7429H135.252V76.7106H134.375V71.5469V71.5601Z" fill="#F0EDE8"/>
<path d="M143.541 74.5526C143.541 76.177 142.467 76.8109 141.393 76.8109C140.175 76.8109 139.102 76.0185 139.102 74.4997V71.5547H139.979V74.4073C139.979 75.4374 140.568 75.9789 141.341 75.9789C142.166 75.9789 142.611 75.3846 142.611 74.4601V71.5547H143.489V74.5526H143.541Z" fill="#F0EDE8"/>
<path d="M144.328 71.5547H148.624V72.3867H146.921V76.7184H146.044V72.3867H144.341V71.5547H144.328Z" fill="#F0EDE8"/>
<path d="M153.838 74.5526C153.838 76.177 152.764 76.8109 151.69 76.8109C150.472 76.8109 149.398 76.0185 149.398 74.4997V71.5547H150.276V74.4073C150.276 75.4374 150.865 75.9789 151.638 75.9789C152.463 75.9789 152.908 75.3846 152.908 74.4601V71.5547H153.786V74.5526H153.838Z" fill="#F0EDE8"/>
<path d="M155.148 76.7106V71.5469H157.349C158.815 71.5469 159.3 72.2864 159.3 73.1713C159.3 73.9637 158.815 74.5051 158.174 74.69L159.64 76.7503H158.567L157.244 74.8881H156.078V76.7106H155.148ZM156.026 72.4317V74.0561H157.244C157.872 74.0561 158.318 73.7656 158.318 73.2637C158.318 72.7619 158.03 72.4713 157.191 72.4713H156.026V72.4185V72.4317Z" fill="#F0EDE8"/>
<path d="M160.513 71.5547H164.311V72.3867H161.391V73.7206H164.023V74.513H161.391V75.8864H164.364V76.7184H160.461V71.5547H160.513Z" fill="#F0EDE8"/>
<path d="M105.908 54.1477H114.054V55.0854C114.054 60.1963 110.4 62.8508 106.445 62.8508C101.717 62.8508 98.3516 59.4039 98.3516 54.6363C98.3516 49.8688 101.717 46.4219 106.445 46.4219C109.418 46.4219 112.103 47.9935 113.412 50.8461L111.566 51.4404C110.544 49.4726 108.593 48.3368 106.445 48.3368C102.988 48.3368 100.499 50.8989 100.499 54.6363C100.499 58.3738 102.988 60.9359 106.445 60.9359C109.326 60.9359 111.815 59.2586 112.103 56.1683H105.856V54.1477H105.908Z" fill="#F0EDE8"/>
<path d="M116.576 50.7137H118.475V52.0872C118.815 51.1099 119.798 50.5156 121.16 50.5156C121.552 50.5156 122.089 50.5685 122.233 50.6081V52.4702C121.945 52.3777 121.552 52.3249 121.16 52.3249C119.405 52.3249 118.422 53.3022 118.422 54.9794V62.6524H116.523V50.7137H116.576Z" fill="#F0EDE8"/>
<path d="M129.599 50.5156C133.252 50.5156 135.885 53.1173 135.885 56.6567C135.885 60.196 133.305 62.8505 129.599 62.8505C125.892 62.8505 123.352 60.2488 123.352 56.6567C123.352 53.0645 125.892 50.5156 129.599 50.5156ZM129.599 61.0412C132.139 61.0412 133.894 59.2716 133.894 56.6699C133.894 54.0682 132.048 52.3381 129.599 52.3381C127.15 52.3381 125.355 54.055 125.355 56.6699C125.355 59.2848 127.058 61.0412 129.599 61.0412Z" fill="#F0EDE8"/>
<path d="M147.003 60.7323C146.375 62.0133 144.908 62.8453 143.153 62.8453C139.931 62.8453 138.281 61.2209 138.281 57.5363V50.6953H140.18V57.2325C140.18 59.2531 140.861 60.97 143.494 60.97C145.537 60.97 146.951 59.6361 146.951 57.4306V50.6953H148.85V62.5944H146.951V60.7323H147.003Z" fill="#F0EDE8"/>
<path d="M154.219 60.8569V67.2489H152.32V50.7275H154.219V52.8405C155.005 51.4671 156.511 50.4766 158.711 50.4766C161.933 50.4766 164.421 52.7877 164.421 56.5252C164.421 60.2626 162.038 62.7718 158.567 62.7718C156.419 62.8643 155.057 62.0851 154.232 60.8569H154.219ZM162.418 56.6308C162.418 53.9763 160.715 52.2991 158.318 52.2991C155.922 52.2991 154.219 53.8706 154.219 56.4723V56.9214C154.219 59.6815 156.066 61.0022 158.358 61.0022C160.794 61.055 162.405 59.3249 162.405 56.6308H162.418Z" fill="#F0EDE8"/>
<path d="M79.4615 62.6109L76.1481 57.1037L72.9264 62.6109H69.076L74.0527 54.3039L68.9844 46.5781H73.0311L76.2528 51.7419L79.3305 46.5781H83.2332L78.2566 54.5417L83.3773 62.6109H79.4746H79.4615Z" fill="#F0EDE8"/>
<path d="M95.9048 57.2053C95.9048 60.7446 93.2724 62.9105 89.815 62.9105C86.7897 62.9105 84.2098 61.2333 83.9609 57.5487H87.2743C87.5231 59.1731 88.7804 59.8598 90.1555 59.8598C91.858 59.8598 92.6438 58.6844 92.6438 57.2053C92.6438 55.6337 91.4782 54.6432 89.8674 54.6432C88.5447 54.6432 87.6279 55.2771 87.235 55.9771H84.0657L85.1396 46.6797H95.4726L95.1321 49.7832H87.772L87.4839 52.8868C87.4839 52.8868 88.2696 51.9491 90.6008 51.9491C93.4296 51.8566 95.9179 53.8112 95.9179 57.2053H95.9048Z" fill="#F0EDE8"/>
<path d="M84.3507 44.6054C82.5958 37.7248 77.0299 32.8516 65.4789 32.8516H51.5312L53.4302 45.7411C54.8446 57.3893 59.2843 61.1268 67.0897 62.5134C67.1421 62.5134 67.3778 62.5663 67.3778 62.2625C67.3778 62.1701 67.3255 62.0644 67.2338 62.0116C61.969 59.7533 61.3273 52.4236 60.2141 45.0412L59.3367 39.1379H67.2862C74.6463 39.1379 80.3039 39.0454 83.8662 44.7374C83.9185 44.8299 84.0102 44.8827 84.115 44.8827C84.259 44.8827 84.3638 44.7903 84.3638 44.6318V44.579L84.3507 44.6054Z" fill="#F0EDE8"/>
</g>
<defs>
<clipPath id="clip0_1860_140">
<rect width="112.891" height="43.9646" fill="white" transform="translate(51.5312 32.8438)"/>
</clipPath>
</defs>
</svg>
