<svg width="218" height="111" viewBox="0 0 218 111" fill="none" xmlns="http://www.w3.org/2000/svg">
<g clipPath="url(#clip0_1860_51)">
<path d="M68.8632 44.16H66.8717C63.214 44.16 61.2875 45.9992 61.2875 48.7256C61.2875 51.8172 62.6152 53.2521 65.3617 55.1044L67.6136 56.6176L61.1052 66.3098H56.25L62.0945 57.6481C58.7232 55.2479 56.8358 52.939 56.8358 48.9865C56.8358 44.0556 60.2852 40.7031 66.8326 40.7031H73.341V66.3098H68.8632V44.16Z" fill="#F0EDE8"/>
<path d="M109.643 47.7656H96.8089V49.344C96.8089 53.8705 96.5095 59.7276 94.9605 62.8322H93.5938V70.5285H97.668V66.289H107.548V70.5285H111.622V62.8322H109.656V47.7656H109.643ZM105.244 62.8322H99.0217C100.245 60.0276 100.571 54.9924 100.571 51.7834V51.2355H105.231V62.8452L105.244 62.8322Z" fill="#F0EDE8"/>
<path d="M87.3275 55.0967H81.4439V47.7656H77.0312V66.3021H81.4439V58.5666H87.3275V66.3021H91.7271V47.7656H87.3275V55.0967Z" fill="#F0EDE8"/>
<path d="M155.479 50.8553C157.184 50.8553 158.85 51.4423 159.735 52.0032V48.2855C158.811 47.7637 157.184 47.3984 154.997 47.3984C149.374 47.3984 146.445 51.4162 146.445 57.0515C146.445 63.2346 149.296 66.6654 155.18 66.6654C157.21 66.6654 158.655 66.3001 159.735 65.5174V61.9432C158.629 62.7129 157.288 63.1955 155.44 63.1955C152.29 63.1955 151.001 60.7692 151.001 56.9341C151.001 53.0989 152.589 50.8553 155.479 50.8553Z" fill="#F0EDE8"/>
<path d="M145.857 47.7656H141.406L135.197 56.3099V47.7656H130.797V66.3021H135.197V57.1969L141.705 66.3021H146.703L139.635 56.3099L145.857 47.7656Z" fill="#F0EDE8"/>
<path d="M120.586 47.3984C115.223 47.3984 112.672 51.4814 112.672 57.0906C112.672 63.5347 115.848 66.6654 121.484 66.6654C124.296 66.6654 126.365 65.9349 127.667 65.0478V61.4736C126.3 62.3998 124.009 63.2085 121.862 63.2085C118.647 63.2085 117.423 61.6954 117.241 58.6038H127.862V56.2818C127.862 49.8378 125.012 47.3984 120.612 47.3984H120.586ZM123.359 55.3557H117.215C117.332 52.4076 118.399 50.8553 120.508 50.8553C122.617 50.8553 123.359 52.6554 123.359 54.9774V55.3426V55.3557Z" fill="#F0EDE8"/>
</g>
<defs>
<clipPath id="clip0_1860_51">
<rect width="103.483" height="29.8331" fill="#F0EDE8" transform="translate(56.25 40.7109)"/>
</clipPath>
</defs>
</svg>
