<svg width="146" height="32" viewBox="0 0 146 32" fill="none" xmlns="http://www.w3.org/2000/svg">
<g clipPath="url(#clip0_1860_10)">
<path d="M17.5379 0.5625C13.5178 0.5625 10.0721 3.43647 9.35647 7.39813L8.15488 14.0215H3.14533L2.43851 17.9036H7.43923L6.36134 23.8372C5.97259 25.9507 4.13487 27.4894 1.98792 27.4894H0.706815L0 31.3715H1.99675C6.01677 31.3715 9.46249 28.4975 10.1781 24.5358L11.3797 17.9124H16.3804L17.0873 14.0304H12.0865L13.1644 8.09672C13.5532 5.98325 15.3909 4.44457 17.5379 4.44457H18.8366L19.5434 0.5625H17.5467H17.5379Z" fill="#F0EDE8"/>
<path d="M39.6295 13.1486V22.9378H36.0071V13.1486H33.7188V10.1155H36.0071V8.90398C36.0071 7.60406 36.387 6.56058 37.138 5.79124C37.889 5.0219 38.958 4.63281 40.3451 4.63281C41.5909 4.63281 42.6865 4.80967 43.6053 5.17223V8.09926C42.8367 7.80744 42.0945 7.66596 41.3965 7.66596C40.2126 7.66596 39.6207 8.24075 39.6207 9.39034V10.1066H43.6053V13.1398H39.6207L39.6295 13.1486Z" fill="#F0EDE8"/>
<path d="M54.2948 18.2803V10.1094H57.9173V22.9317H54.2948V21.393C53.1462 22.6399 51.7149 23.2677 50.0098 23.2677C48.5343 23.2677 47.3945 22.7991 46.5729 21.8705C45.7512 20.9332 45.3359 19.6421 45.3359 17.9796V10.1094H48.9584V17.228C48.9584 18.1565 49.1881 18.8374 49.6387 19.2884C50.0893 19.7305 50.6812 19.9605 51.3969 19.9605C51.9447 19.9605 52.4924 19.8013 53.0314 19.4829C53.5703 19.1646 53.9944 18.7667 54.3037 18.2891L54.2948 18.2803Z" fill="#F0EDE8"/>
<path d="M64.6927 14.7687V22.9396H61.0703V10.1173H64.6927V11.656C65.8413 10.4091 67.2726 9.78125 68.9778 9.78125C70.4533 9.78125 71.593 10.2499 72.4147 11.1784C73.2364 12.1158 73.6428 13.4069 73.6428 15.0694V22.9308H70.0204V15.8122C70.0204 14.8837 69.7906 14.2027 69.3401 13.7518C68.8895 13.3096 68.2975 13.0797 67.5818 13.0797C67.0341 13.0797 66.4863 13.2389 65.9473 13.5572C65.4084 13.8756 64.9843 14.2735 64.6751 14.751L64.6927 14.7687Z" fill="#F0EDE8"/>
<path d="M82.6653 23.2668C80.7657 23.2668 79.1312 22.6478 77.7617 21.4186C76.3923 20.1541 75.7031 18.5093 75.7031 16.4842C75.7031 14.4592 76.3834 12.8409 77.7617 11.6294C79.1489 10.3914 80.801 9.78125 82.7183 9.78125C84.1231 9.78125 85.3865 10.0642 86.5174 10.6302V13.7164C85.4042 13.2035 84.3174 12.947 83.2572 12.947C82.1263 12.947 81.1809 13.2831 80.4034 13.9463C79.6525 14.6007 79.2725 15.4584 79.2725 16.5196C79.2725 17.5808 79.6613 18.4474 80.43 19.1194C81.1986 19.7915 82.144 20.1187 83.2572 20.1187C84.5737 20.1187 85.7311 19.8269 86.7206 19.2432V22.3294C85.519 22.9661 84.1672 23.2845 82.6653 23.2845V23.2668Z" fill="#F0EDE8"/>
<path d="M90.6274 18.9406V13.1308H88.1094V10.0976H90.6274V6.57812H94.2498V10.0976H97.8988V13.1308H94.2498V18.2243C94.2498 18.861 94.3912 19.3209 94.6651 19.6038C94.939 19.8868 95.3807 20.0283 95.9992 20.0283C96.6177 20.0283 97.2538 19.878 97.8723 19.5685V22.5751C97.1213 23.0349 96.0964 23.2648 94.8153 23.2648C92.0234 23.2648 90.6274 21.8234 90.6274 18.9495V18.9406Z" fill="#F0EDE8"/>
<path d="M100.188 6.71547C100.188 6.09646 100.4 5.58357 100.815 5.1591C101.23 4.74348 101.742 4.53125 102.343 4.53125C102.944 4.53125 103.448 4.74348 103.872 5.1591C104.287 5.58357 104.499 6.09646 104.499 6.71547C104.499 7.33448 104.287 7.82084 103.872 8.2453C103.448 8.66977 102.944 8.87316 102.343 8.87316C101.742 8.87316 101.239 8.66092 100.815 8.2453C100.391 7.82968 100.188 7.31679 100.188 6.71547ZM104.172 22.9335H100.55V10.1112H104.172V22.9335Z" fill="#F0EDE8"/>
<path d="M106.656 16.504C106.656 14.6027 107.328 13.011 108.662 11.7199C109.978 10.42 111.683 9.76562 113.769 9.76562C115.854 9.76562 117.559 10.42 118.875 11.7199C120.209 13.0198 120.881 14.6116 120.881 16.504C120.881 18.3964 120.209 20.0323 118.875 21.3323C117.541 22.6145 115.836 23.26 113.769 23.26C111.701 23.26 109.996 22.6145 108.662 21.3323C107.328 20.0323 106.656 18.4229 106.656 16.504ZM110.226 16.504C110.226 17.5298 110.561 18.3875 111.224 19.0773C111.896 19.767 112.735 20.1031 113.769 20.1031C114.802 20.1031 115.642 19.7582 116.313 19.0773C116.985 18.3787 117.311 17.5209 117.311 16.504C117.311 15.487 116.976 14.6293 116.313 13.9572C115.642 13.2763 114.802 12.9314 113.769 12.9314C112.735 12.9314 111.896 13.2763 111.224 13.9572C110.553 14.6293 110.226 15.4694 110.226 16.504Z" fill="#F0EDE8"/>
<path d="M126.786 14.7687V22.9396H123.164V10.1173H126.786V11.656C127.935 10.4091 129.366 9.78125 131.072 9.78125C132.547 9.78125 133.687 10.2499 134.508 11.1784C135.33 12.1158 135.745 13.4069 135.745 15.0694V22.9308H132.123V15.8122C132.123 14.8837 131.893 14.2027 131.443 13.7518C130.992 13.3096 130.4 13.0797 129.684 13.0797C129.137 13.0797 128.589 13.2389 128.05 13.5572C127.511 13.8756 127.087 14.2735 126.778 14.751L126.786 14.7687Z" fill="#F0EDE8"/>
<path d="M27.5743 31.932C23.0065 21.7891 23.0065 10.1429 27.5743 0L31.1084 1.59174C27 10.7265 27 21.2055 31.1084 30.3403L27.5743 31.932Z" fill="#F0EDE8"/>
<path d="M141.839 31.932L138.305 30.3403C142.413 21.2055 142.413 10.7265 138.305 1.59174L141.839 0C146.407 10.1429 146.407 21.7891 141.839 31.932Z" fill="#F0EDE8"/>
</g>
<defs>
<clipPath id="clip0_1860_10">
<rect width="145.259" height="31.932" fill="#F0EDE8"/>
</clipPath>
</defs>
</svg>
